<svg id="svg" version="1.1" xmlns="http://www.w3.org/2000/svg" xmlns:xlink="http://www.w3.org/1999/xlink" width="400" height="154.9295774647887" viewBox="0, 0, 400,154.9295774647887"><g id="svgg"><path id="path0" d="M0.000 77.417 L 0.000 154.833 200.000 154.833 L 400.000 154.833 400.000 77.417 L 400.000 0.000 200.000 0.000 L 0.000 0.000 0.000 77.417 M75.083 18.405 C 76.440 18.891,77.674 19.554,78.930 20.471 C 80.362 21.517,80.297 21.514,81.558 20.566 C 84.982 17.992,88.945 17.505,94.833 18.935 C 101.377 20.523,104.403 22.536,105.426 25.981 C 105.756 27.090,105.682 27.065,108.748 27.089 C 112.318 27.117,113.662 27.543,117.890 29.984 C 119.895 31.142,122.636 32.533,125.417 33.803 C 134.229 37.827,137.487 42.351,137.502 50.583 C 137.506 52.765,137.386 52.554,139.250 53.668 C 146.620 58.073,149.918 63.298,148.507 68.333 C 147.544 71.767,147.602 72.215,149.154 73.374 C 151.624 75.218,151.824 75.891,152.267 83.862 C 152.717 91.968,152.241 94.780,149.949 97.552 C 148.281 99.568,146.252 100.403,143.000 100.411 C 139.288 100.420,138.412 99.985,139.028 98.437 C 139.257 97.861,139.397 97.024,139.458 95.868 C 139.561 93.925,139.695 93.721,140.686 94.006 C 143.970 94.947,145.056 92.774,145.104 85.167 C 145.147 78.449,145.317 78.837,142.337 78.880 C 136.502 78.964,135.123 74.944,139.548 70.750 C 141.632 68.775,141.914 68.286,141.906 66.669 C 141.893 64.280,140.013 62.096,136.000 59.808 C 132.633 57.889,132.037 57.750,127.167 57.750 C 122.280 57.750,121.344 58.030,120.813 59.650 C 120.297 61.222,119.162 62.000,117.381 62.000 C 114.733 62.000,113.716 60.810,113.818 57.833 C 113.902 55.392,113.900 55.294,113.753 53.330 C 113.456 49.383,115.831 47.846,119.139 49.844 C 120.714 50.794,121.773 51.069,123.325 50.931 C 124.017 50.870,125.633 50.751,126.917 50.666 C 130.984 50.398,131.487 49.851,130.188 47.103 C 128.876 44.327,126.021 41.761,122.147 39.877 C 121.378 39.504,119.587 38.634,118.167 37.944 C 116.746 37.254,114.946 36.259,114.167 35.733 C 109.918 32.863,107.652 33.130,104.834 36.833 C 100.936 41.953,95.746 43.663,91.289 41.294 C 88.675 39.906,88.005 37.392,89.764 35.580 C 90.631 34.688,91.341 34.559,93.637 34.879 C 96.311 35.251,96.901 35.104,98.147 33.752 C 101.640 29.963,98.829 26.537,91.175 25.251 C 86.611 24.485,84.441 25.691,82.820 29.895 C 79.948 37.341,82.374 49.188,87.083 50.720 C 92.994 52.643,99.322 49.685,103.252 43.164 C 105.003 40.258,106.280 39.465,108.203 40.089 C 111.105 41.030,111.268 43.107,108.831 48.083 C 106.651 52.536,105.730 55.436,104.916 60.417 C 104.210 64.731,103.786 66.083,101.969 69.807 C 100.764 72.277,100.746 72.239,102.992 72.009 C 105.729 71.728,105.991 71.522,107.917 68.140 C 110.208 64.116,112.506 62.785,114.326 64.430 C 115.806 65.767,116.266 69.446,115.255 71.868 C 115.079 72.291,115.693 72.385,118.049 72.296 C 121.122 72.180,121.573 71.920,121.981 70.032 C 122.499 67.632,124.648 66.851,126.745 68.301 C 128.101 69.239,128.542 70.249,128.918 73.282 C 129.052 74.364,129.345 76.501,129.569 78.029 C 129.792 79.558,129.948 80.946,129.914 81.113 C 129.881 81.280,129.814 82.141,129.766 83.027 L 129.678 84.638 131.130 84.751 C 136.461 85.167,137.963 86.958,138.120 93.083 C 138.236 97.660,137.652 99.268,135.364 100.669 C 134.788 101.021,134.517 102.200,134.503 104.417 C 134.497 105.425,134.412 106.550,134.314 106.917 C 134.217 107.283,134.077 108.058,134.005 108.638 C 133.933 109.218,133.790 109.777,133.687 109.880 C 133.584 109.983,133.500 110.350,133.500 110.697 C 133.500 111.286,133.270 112.066,132.746 113.250 C 132.170 114.551,132.000 114.979,132.000 115.124 C 132.000 115.624,129.929 119.178,129.187 119.951 C 128.992 120.154,128.832 120.379,128.831 120.451 C 128.816 121.489,123.840 124.832,120.833 125.824 C 117.607 126.889,117.406 126.911,111.549 126.871 C 105.210 126.828,104.027 126.697,99.203 125.505 C 98.810 125.408,98.360 125.263,98.203 125.182 C 98.045 125.101,97.579 124.907,97.167 124.751 C 96.190 124.381,93.668 123.142,93.433 122.916 C 93.332 122.819,92.800 122.396,92.250 121.975 C 90.877 120.926,89.138 119.212,88.632 118.411 C 88.401 118.045,88.089 117.643,87.939 117.519 C 87.789 117.394,87.667 117.222,87.667 117.135 C 87.667 117.049,87.486 116.739,87.264 116.447 C 86.918 115.990,85.576 113.425,85.157 112.417 C 85.081 112.233,84.873 111.746,84.696 111.333 C 84.332 110.485,84.127 109.856,83.746 108.417 C 82.930 105.335,81.359 104.665,80.815 107.167 C 80.520 108.526,80.304 109.260,80.157 109.408 C 80.071 109.495,80.000 109.720,79.999 109.908 C 79.998 110.096,79.886 110.465,79.749 110.727 C 79.612 110.990,79.500 111.284,79.500 111.381 C 79.500 111.665,78.056 114.484,77.288 115.699 C 75.199 119.005,71.628 122.254,68.500 123.694 C 67.216 124.286,66.641 124.500,66.338 124.500 C 66.163 124.500,65.977 124.569,65.925 124.654 C 65.872 124.738,65.589 124.860,65.295 124.925 C 65.001 124.990,64.646 125.102,64.505 125.176 C 64.365 125.249,63.837 125.388,63.333 125.484 C 62.829 125.580,61.892 125.780,61.250 125.928 C 60.608 126.076,59.483 126.259,58.750 126.334 C 58.017 126.410,56.967 126.552,56.417 126.652 C 54.696 126.962,46.832 126.912,45.434 126.582 C 40.818 125.491,37.827 123.593,34.833 119.856 C 33.695 118.435,32.079 115.317,31.583 113.583 C 31.426 113.033,31.240 112.468,31.170 112.328 C 31.100 112.187,30.991 111.812,30.928 111.495 C 30.865 111.177,30.752 110.767,30.676 110.583 C 30.439 110.011,30.167 108.168,29.999 106.000 C 29.668 101.718,29.387 100.500,28.728 100.500 C 28.549 100.500,27.229 99.106,27.005 98.681 C 26.061 96.891,26.090 89.921,27.049 88.067 C 27.349 87.487,28.588 86.167,28.833 86.167 C 28.925 86.167,29.000 86.106,29.000 86.031 C 29.000 85.892,30.539 85.167,30.835 85.167 C 31.255 85.167,30.920 84.811,30.125 84.412 C 26.854 82.772,27.815 79.538,32.388 76.798 C 33.618 76.061,33.667 75.967,33.664 74.343 C 33.660 72.060,33.080 70.648,30.990 67.833 C 30.412 67.054,29.671 65.901,29.344 65.271 C 28.773 64.170,28.691 64.092,27.218 63.255 C 23.889 61.364,23.022 61.369,21.484 63.291 C 18.611 66.880,18.536 68.116,20.894 73.038 C 22.699 76.807,23.010 77.542,23.666 79.583 C 25.016 83.790,24.080 87.305,21.603 87.327 C 19.323 87.348,17.923 85.819,17.166 82.483 C 16.970 81.621,16.777 80.814,16.737 80.690 C 16.414 79.699,14.617 83.971,13.928 87.368 C 13.320 90.362,14.005 94.289,15.309 95.281 C 15.809 95.661,19.797 95.382,21.666 94.837 C 23.099 94.418,23.500 94.726,23.500 96.242 C 23.500 97.567,23.981 98.660,25.028 99.714 C 26.013 100.707,26.122 101.108,25.440 101.237 C 25.244 101.274,24.558 101.383,23.917 101.480 C 23.275 101.577,22.262 101.771,21.667 101.911 C 16.671 103.086,14.065 103.060,11.854 101.812 C 10.294 100.932,9.710 100.204,8.648 97.820 C 7.287 94.764,7.080 94.175,6.757 92.444 C 5.890 87.800,7.579 80.862,10.741 76.083 C 11.165 75.442,11.555 74.729,11.607 74.500 C 11.659 74.271,11.806 73.713,11.934 73.261 C 12.091 72.705,12.167 71.530,12.167 69.629 C 12.167 63.764,14.092 59.570,18.182 56.527 C 19.234 55.744,19.940 54.618,20.160 53.376 C 20.836 49.545,21.323 48.266,22.955 46.037 C 24.874 43.414,27.920 41.172,30.372 40.576 C 31.850 40.217,32.436 39.677,32.988 38.164 C 35.003 32.635,41.282 28.627,48.643 28.169 C 51.244 28.007,51.354 27.954,52.496 26.319 C 55.383 22.181,60.904 18.907,66.245 18.166 C 68.129 17.904,74.140 18.067,75.083 18.405 M67.473 24.833 C 64.737 25.170,61.681 26.683,59.531 28.765 C 58.519 29.746,58.505 29.939,59.416 30.416 C 65.048 33.365,60.730 43.138,53.267 44.331 C 48.207 45.139,47.278 39.590,52.196 37.928 C 56.107 36.606,55.034 35.460,49.667 35.227 C 43.577 34.964,39.915 37.604,39.239 42.745 C 38.595 47.649,37.974 48.120,32.881 47.564 C 31.571 47.421,30.336 48.150,28.755 50.000 C 26.921 52.146,26.486 54.308,27.625 55.605 C 28.552 56.659,28.939 56.673,29.765 55.683 C 30.923 54.296,33.326 53.241,37.206 52.414 C 41.778 51.440,42.227 51.439,45.500 52.392 C 46.321 52.631,46.530 52.634,47.500 52.415 C 49.823 51.890,50.980 51.684,52.583 51.509 C 54.569 51.292,54.879 51.200,57.236 50.130 C 61.355 48.260,62.895 49.080,63.248 53.333 C 63.516 56.557,64.044 58.179,65.576 60.491 C 66.947 62.562,67.170 63.123,67.154 64.479 C 67.097 69.406,62.841 68.231,55.853 61.360 C 54.644 60.172,53.910 59.723,52.956 59.590 C 51.641 59.406,51.500 59.518,51.500 60.749 C 51.500 66.355,47.075 66.872,44.483 61.569 C 43.197 58.937,41.846 58.362,38.813 59.155 C 35.473 60.028,35.401 60.195,37.239 62.757 C 39.495 65.901,40.830 70.170,40.834 74.250 C 40.836 76.239,40.776 76.106,43.033 79.115 C 44.754 81.409,45.263 82.333,45.474 83.545 L 45.583 84.174 50.833 84.212 L 56.083 84.250 56.213 82.750 C 56.284 81.925,56.452 80.660,56.586 79.939 C 56.916 78.157,56.829 78.091,54.761 78.565 C 51.847 79.232,51.077 79.354,49.645 79.374 C 45.368 79.432,43.749 76.291,46.504 73.277 C 49.602 69.888,56.702 69.781,65.884 72.985 C 68.789 73.999,72.479 74.473,73.577 73.973 C 74.618 73.498,75.292 70.777,75.088 67.870 C 74.948 65.882,74.711 65.350,73.332 63.923 C 71.016 61.529,71.174 59.720,73.833 58.167 C 75.162 57.391,75.836 56.307,75.966 54.737 C 76.186 52.092,74.324 50.923,68.695 50.169 C 64.379 49.592,63.026 48.998,62.151 47.298 C 61.055 45.167,62.659 43.670,68.611 41.273 C 71.922 39.940,72.376 39.657,73.061 38.500 C 74.529 36.020,76.333 30.399,76.333 28.303 C 76.333 26.062,71.826 24.297,67.473 24.833 M97.292 57.430 C 96.719 58.003,90.101 58.434,88.300 58.015 C 87.596 57.852,87.373 58.020,86.998 59.000 C 86.766 59.607,85.931 60.922,84.512 62.917 C 82.839 65.268,82.530 66.955,82.906 71.699 C 83.079 73.877,83.150 76.667,83.125 80.333 C 83.085 86.320,83.136 86.731,84.201 89.034 C 84.876 90.492,85.048 90.535,86.964 89.730 C 87.265 89.604,87.579 89.500,87.661 89.500 C 87.743 89.500,88.322 89.270,88.947 88.989 C 89.572 88.709,90.233 88.419,90.417 88.346 C 90.600 88.273,91.034 88.090,91.381 87.940 C 91.728 87.790,92.113 87.667,92.237 87.667 C 92.900 87.667,93.164 87.120,92.840 86.417 C 91.962 84.514,91.442 79.704,91.840 77.180 C 92.300 74.264,93.137 72.067,95.465 67.667 C 96.605 65.513,96.838 64.891,97.311 62.750 C 97.714 60.921,98.180 57.657,98.065 57.470 C 97.968 57.313,97.436 57.286,97.292 57.430 M170.504 61.167 C 170.750 61.557,170.711 65.452,170.458 65.615 C 170.344 65.689,168.150 65.787,165.583 65.833 L 160.917 65.917 160.873 71.779 L 160.829 77.641 164.056 77.696 C 168.097 77.764,167.833 77.587,167.833 80.237 C 167.833 82.846,168.087 82.667,164.397 82.667 C 162.727 82.667,161.242 82.712,161.097 82.768 C 160.861 82.858,160.833 83.799,160.833 91.673 C 160.833 99.454,160.803 100.507,160.571 100.738 C 160.183 101.127,154.650 101.127,154.262 100.738 C 154.027 100.503,154.000 98.476,154.000 80.914 L 154.000 61.352 154.375 61.089 C 154.925 60.702,170.257 60.776,170.504 61.167 M292.058 61.145 C 292.482 61.498,292.482 100.227,292.058 100.695 C 291.466 101.348,285.333 101.084,285.333 100.406 C 285.333 99.946,284.884 99.977,284.123 100.491 C 283.708 100.771,283.267 101.002,283.142 101.005 C 283.018 101.008,282.771 101.121,282.593 101.255 C 281.932 101.756,278.794 101.590,277.562 100.990 C 276.064 100.260,274.000 97.784,274.000 96.717 C 274.000 96.626,273.894 96.333,273.765 96.067 C 273.532 95.585,273.189 94.152,272.853 92.250 C 272.077 87.855,272.669 78.677,273.917 75.759 C 275.696 71.600,281.364 70.115,284.458 72.997 C 285.336 73.815,285.333 73.835,285.336 67.375 C 285.338 61.432,285.361 61.139,285.833 60.949 C 286.363 60.736,291.771 60.907,292.058 61.145 M313.097 61.240 C 313.266 61.471,313.333 62.068,313.333 63.328 C 313.333 66.038,313.756 65.833,308.157 65.833 L 303.500 65.833 303.500 71.732 L 303.500 77.631 306.763 77.691 C 310.735 77.763,310.500 77.603,310.500 80.227 C 310.500 82.794,310.687 82.666,306.933 82.669 C 305.274 82.671,303.827 82.729,303.717 82.799 C 303.566 82.894,303.504 85.110,303.467 91.727 C 303.418 100.215,303.405 100.535,303.093 100.764 C 302.596 101.127,297.129 101.105,296.762 100.738 C 296.481 100.457,296.349 61.651,296.628 61.233 C 296.867 60.875,297.338 60.855,305.055 60.886 C 312.570 60.916,312.869 60.929,313.097 61.240 M183.919 72.001 C 186.693 72.955,188.350 74.900,189.102 78.083 C 189.574 80.084,189.579 93.304,189.108 95.083 C 188.416 97.694,187.030 99.683,185.308 100.535 C 181.510 102.415,176.234 101.805,173.801 99.204 C 171.692 96.949,171.334 95.105,171.334 86.500 C 171.334 79.111,171.404 78.514,172.628 75.500 C 172.941 74.728,174.627 73.060,175.539 72.620 C 177.486 71.682,177.450 71.689,180.266 71.677 C 182.534 71.668,183.097 71.718,183.919 72.001 M206.667 71.917 C 206.974 72.093,207.723 72.156,209.530 72.161 C 211.834 72.166,212.416 72.276,212.506 72.720 C 212.509 72.737,212.612 73.462,212.735 74.333 C 213.008 76.272,213.740 81.186,214.077 83.333 C 214.213 84.204,214.407 85.554,214.508 86.333 C 214.815 88.715,215.008 88.491,215.413 85.282 C 215.543 84.256,215.836 82.142,216.065 80.583 C 216.293 79.025,216.603 76.775,216.752 75.583 C 217.100 72.818,217.116 72.741,217.429 72.428 C 217.772 72.085,222.929 72.039,223.387 72.375 C 223.707 72.610,224.192 75.383,225.085 82.083 C 225.316 83.815,225.476 84.870,225.930 87.642 C 226.065 88.464,226.106 88.316,226.489 85.666 C 227.268 80.265,227.526 78.544,227.674 77.750 C 227.759 77.292,227.908 76.204,228.004 75.333 C 228.368 72.024,228.203 72.172,231.510 72.169 C 235.170 72.166,235.050 71.944,234.030 76.833 C 233.507 79.341,233.058 81.633,231.761 88.417 C 230.968 92.560,230.193 96.493,229.660 99.079 C 229.463 100.036,229.247 100.651,229.061 100.787 C 228.635 101.098,223.281 101.089,223.022 100.777 C 222.758 100.459,222.365 98.272,221.325 91.333 C 221.028 89.349,220.912 88.693,220.566 87.022 C 220.404 86.242,220.089 87.695,219.655 91.230 C 219.566 91.952,219.456 92.604,219.409 92.678 C 219.335 92.798,219.156 93.942,218.495 98.500 C 218.108 101.169,218.361 101.000,214.764 101.000 C 211.052 101.000,211.426 101.417,210.501 96.250 C 210.304 95.150,210.026 93.650,209.882 92.917 C 209.739 92.183,209.560 91.246,209.486 90.833 C 209.411 90.421,209.230 89.446,209.084 88.667 C 208.672 86.472,208.394 84.951,207.944 82.417 C 207.232 78.417,207.068 77.948,206.604 78.584 C 206.400 78.863,206.297 78.877,205.728 78.711 C 203.336 78.012,203.227 78.001,202.164 78.361 C 199.803 79.158,199.839 78.968,199.836 90.780 C 199.834 99.370,199.803 100.506,199.571 100.738 C 199.183 101.127,193.650 101.127,193.262 100.738 C 192.810 100.286,192.869 72.582,193.322 72.339 C 193.508 72.240,194.843 72.167,196.477 72.167 C 199.521 72.167,199.830 72.248,199.836 73.054 C 199.840 73.661,200.088 73.934,200.379 73.652 C 202.216 71.872,205.165 71.058,206.667 71.917 M248.205 71.932 C 251.043 72.990,252.680 74.644,253.704 77.487 C 254.018 78.357,254.048 79.019,254.177 87.750 C 254.302 96.232,254.404 98.389,254.749 99.931 C 254.969 100.914,254.697 101.000,251.347 101.000 C 247.992 101.000,247.886 100.962,247.715 99.690 C 247.641 99.139,247.167 98.524,247.167 98.979 C 247.167 100.069,244.367 101.500,242.234 101.500 C 235.111 101.500,233.499 90.572,240.000 86.353 C 241.910 85.113,244.776 83.685,245.922 83.403 C 247.204 83.086,247.482 82.074,246.999 79.481 C 246.581 77.236,245.128 76.397,243.858 77.668 C 243.367 78.159,243.281 78.422,242.882 80.667 C 242.707 81.651,242.243 81.813,239.583 81.820 C 236.268 81.829,235.906 81.660,235.939 80.117 C 235.973 78.504,237.174 75.000,237.693 75.000 C 237.770 75.000,237.833 74.906,237.833 74.792 C 237.832 74.460,239.504 73.042,240.417 72.600 C 242.298 71.690,242.306 71.688,244.955 71.677 C 246.888 71.669,247.663 71.730,248.205 71.932 M271.405 71.929 C 271.624 72.148,271.667 72.691,271.667 75.250 C 271.667 78.904,271.592 79.086,270.262 78.676 C 268.265 78.060,267.862 78.015,267.042 78.310 C 264.611 79.186,264.765 78.406,264.667 90.350 C 264.599 98.572,264.541 100.500,264.355 100.725 C 264.083 101.051,258.573 101.140,257.989 100.827 C 257.674 100.659,257.667 100.325,257.667 86.583 C 257.667 72.842,257.674 72.508,257.989 72.339 C 258.175 72.239,259.523 72.167,261.184 72.167 C 264.297 72.167,264.667 72.266,264.667 73.099 C 264.667 73.707,264.949 73.723,265.655 73.156 C 267.346 71.797,270.583 71.106,271.405 71.929 M326.750 72.077 C 328.659 72.770,330.410 74.328,330.984 75.844 C 331.103 76.159,331.263 76.567,331.340 76.750 C 331.418 76.933,331.531 77.346,331.593 77.667 C 331.655 77.987,331.790 78.355,331.894 78.484 C 332.029 78.651,332.083 80.966,332.083 86.583 C 332.083 92.200,332.029 94.516,331.894 94.683 C 331.790 94.811,331.655 95.179,331.593 95.500 C 331.531 95.821,331.414 96.233,331.333 96.417 C 331.251 96.600,331.036 97.087,330.854 97.500 C 330.219 98.941,327.915 101.000,326.937 101.000 C 326.809 101.000,326.490 101.112,326.227 101.249 C 325.428 101.666,320.860 101.600,319.578 101.154 C 316.627 100.127,314.959 98.131,314.295 94.833 C 313.480 90.783,313.735 78.966,314.683 76.833 C 315.966 73.950,316.673 73.210,319.167 72.140 C 320.734 71.468,324.973 71.433,326.750 72.077 M346.756 72.013 C 348.996 72.792,351.333 75.069,351.333 76.472 C 351.333 76.558,351.445 76.843,351.582 77.106 C 351.719 77.369,351.832 77.812,351.832 78.092 C 351.833 78.371,351.916 78.683,352.017 78.784 C 352.125 78.891,352.211 79.706,352.225 80.746 C 352.258 83.097,352.405 83.000,348.833 83.000 C 345.458 83.000,345.498 83.019,345.322 81.317 C 344.906 77.303,343.295 75.868,341.804 78.184 C 341.088 79.295,340.718 91.198,341.316 93.861 C 342.144 97.547,344.975 96.427,345.321 92.277 C 345.476 90.421,345.307 90.506,348.863 90.503 C 352.302 90.500,352.341 90.515,352.321 91.887 C 352.303 93.156,351.805 95.873,351.524 96.232 C 351.444 96.334,351.333 96.613,351.275 96.853 C 350.885 98.489,348.833 100.373,346.589 101.154 C 345.275 101.611,341.220 101.660,340.214 101.231 C 337.933 100.257,336.490 99.087,335.809 97.658 C 334.359 94.618,334.268 93.959,334.268 86.583 C 334.268 79.201,334.351 78.603,335.809 75.500 C 337.295 72.337,342.722 70.609,346.756 72.013 M388.105 72.109 C 390.277 72.992,393.167 76.273,393.167 77.855 C 393.167 77.990,393.249 78.182,393.350 78.283 C 393.955 78.889,393.307 80.333,392.430 80.333 C 392.229 80.333,391.918 80.443,391.740 80.578 C 391.562 80.713,391.256 80.825,391.061 80.828 C 390.865 80.831,390.490 80.945,390.227 81.082 C 389.182 81.628,388.375 81.356,387.909 80.302 C 387.735 79.907,387.552 79.546,387.503 79.500 C 387.454 79.454,387.207 79.098,386.955 78.709 C 385.781 76.898,383.579 76.667,382.646 78.259 C 381.974 79.404,382.460 80.594,384.105 81.833 C 384.643 82.238,385.158 82.632,385.250 82.708 C 385.342 82.784,385.842 83.162,386.362 83.548 C 391.196 87.137,391.921 87.920,393.400 91.150 C 393.642 91.680,393.639 95.663,393.396 96.183 C 393.293 96.403,393.018 96.998,392.784 97.506 C 392.039 99.121,390.282 100.465,387.917 101.232 C 386.748 101.610,382.561 101.613,381.692 101.236 C 381.357 101.091,380.821 100.858,380.500 100.719 C 378.553 99.875,376.632 97.504,375.761 94.869 C 375.309 93.505,375.857 92.986,378.421 92.345 C 378.698 92.275,379.087 92.132,379.285 92.026 C 380.207 91.532,381.031 91.931,381.343 93.022 C 382.359 96.567,386.667 96.992,386.667 93.547 C 386.667 92.066,386.159 91.209,384.583 90.030 C 384.492 89.962,384.042 89.628,383.583 89.289 C 383.125 88.949,382.675 88.610,382.583 88.535 C 382.492 88.460,381.517 87.735,380.417 86.922 C 376.548 84.065,375.623 82.687,375.527 79.633 C 375.409 75.874,377.110 73.409,380.750 72.067 C 382.174 71.542,386.776 71.568,388.105 72.109 M361.407 72.537 C 361.636 72.864,361.667 74.255,361.667 84.267 C 361.667 97.145,361.539 96.090,363.092 96.075 C 363.783 96.068,364.099 95.967,364.607 95.591 C 365.936 94.607,365.825 95.695,365.830 83.554 C 365.833 73.903,365.863 72.661,366.095 72.429 C 366.409 72.115,371.948 72.038,372.511 72.339 C 372.964 72.582,373.023 100.286,372.571 100.738 C 372.353 100.957,371.817 101.000,369.333 101.000 C 366.134 101.000,365.836 100.925,365.831 100.113 C 365.825 99.284,365.588 99.260,364.561 99.982 C 360.385 102.918,355.670 101.791,354.687 97.623 C 354.348 96.186,354.431 72.853,354.776 72.471 C 355.243 71.955,361.040 72.013,361.407 72.537 M179.384 77.493 C 178.403 78.091,178.302 78.783,178.210 85.500 C 178.103 93.355,178.331 95.145,179.514 95.757 C 180.584 96.310,181.628 95.855,182.205 94.583 C 182.757 93.368,182.799 80.164,182.256 78.700 C 181.730 77.281,180.546 76.784,179.384 77.493 M280.604 77.763 C 279.961 78.425,279.913 78.616,279.667 81.500 C 279.126 87.826,279.717 94.188,280.971 95.542 C 281.403 96.008,283.005 96.230,283.236 95.855 C 283.285 95.776,283.669 95.672,284.089 95.625 C 285.387 95.478,285.322 95.957,285.328 86.540 L 285.333 78.162 284.625 77.850 C 282.547 76.935,281.431 76.911,280.604 77.763 M322.207 77.388 C 321.053 78.028,320.840 79.461,320.840 86.583 C 320.840 93.765,321.071 95.266,322.260 95.808 C 323.344 96.302,324.338 95.765,324.853 94.408 C 325.299 93.234,325.334 80.158,324.895 78.815 C 324.448 77.450,323.245 76.811,322.207 77.388 M116.750 79.507 C 116.383 79.582,114.096 79.691,111.667 79.750 C 106.510 79.876,104.133 80.254,103.154 81.105 C 103.009 81.230,102.821 81.333,102.736 81.333 C 102.464 81.333,100.806 83.192,100.565 83.767 C 99.963 85.208,100.388 85.507,102.562 85.169 C 103.307 85.053,104.817 84.896,105.917 84.820 C 107.017 84.743,108.779 84.607,109.833 84.516 C 110.888 84.426,114.290 84.348,117.394 84.343 C 123.693 84.332,123.104 84.464,122.664 83.167 C 121.571 79.949,119.842 78.879,116.750 79.507 M63.860 81.317 C 63.665 81.437,63.337 83.248,63.335 84.212 C 63.333 84.937,63.535 85.071,65.000 85.320 C 66.489 85.572,67.733 85.893,70.583 86.760 C 71.042 86.900,71.643 87.074,71.921 87.147 C 72.198 87.221,72.593 87.371,72.799 87.482 C 73.393 87.799,73.500 87.576,73.500 86.022 C 73.500 84.028,73.506 84.033,70.990 83.659 C 68.346 83.267,67.439 82.990,65.558 82.007 C 64.720 81.568,63.955 81.258,63.860 81.317 M246.508 88.289 C 246.374 88.341,246.187 88.447,246.091 88.524 C 245.995 88.601,245.532 88.959,245.061 89.320 C 243.195 90.753,242.514 92.800,243.257 94.745 C 243.594 95.628,245.495 96.585,245.501 95.875 C 245.502 95.806,245.725 95.623,245.998 95.468 C 247.054 94.867,247.175 94.410,247.127 91.180 C 247.084 88.307,247.036 88.083,246.508 88.289 M49.327 94.562 C 49.282 94.607,48.271 94.732,47.081 94.839 C 45.890 94.946,44.842 95.090,44.750 95.160 C 44.658 95.230,44.312 95.329,43.980 95.380 C 42.673 95.580,39.500 97.110,39.500 97.540 C 39.500 97.638,39.313 97.964,39.083 98.265 C 38.609 98.887,38.426 105.073,38.859 105.881 C 38.964 106.078,39.109 106.692,39.180 107.245 C 39.331 108.421,39.696 109.919,39.875 110.097 C 39.944 110.166,40.000 110.360,40.000 110.528 C 40.000 110.855,40.944 112.758,41.292 113.133 C 41.406 113.256,41.500 113.419,41.500 113.495 C 41.500 113.730,43.621 115.720,44.287 116.110 C 45.504 116.824,46.276 117.167,46.678 117.173 C 46.901 117.176,47.271 117.286,47.500 117.417 C 47.729 117.548,48.277 117.658,48.717 117.661 C 49.157 117.664,50.029 117.783,50.655 117.925 C 51.619 118.145,52.093 118.155,53.771 117.993 C 54.859 117.889,56.425 117.742,57.250 117.668 C 58.075 117.593,59.050 117.444,59.417 117.336 C 59.783 117.227,60.496 117.023,61.000 116.882 C 62.352 116.504,65.816 114.775,66.583 114.095 C 66.950 113.770,67.362 113.466,67.500 113.420 C 67.934 113.274,69.728 110.559,70.284 109.207 C 72.654 103.447,71.589 99.020,67.319 96.881 C 65.998 96.220,63.342 95.333,62.680 95.333 C 62.410 95.333,61.980 95.254,61.724 95.157 C 60.759 94.790,49.633 94.256,49.327 94.562 M106.917 94.670 C 106.550 94.749,105.763 94.822,105.167 94.831 C 104.571 94.840,103.746 94.920,103.333 95.009 C 102.921 95.098,102.096 95.247,101.500 95.340 C 97.322 95.993,93.000 99.036,93.000 101.324 C 93.000 101.421,92.920 101.500,92.823 101.500 C 92.456 101.500,92.826 105.705,93.372 107.750 C 93.607 108.629,94.827 111.172,95.171 111.500 C 95.219 111.546,95.571 111.982,95.954 112.469 C 96.336 112.956,96.859 113.517,97.116 113.716 C 97.373 113.915,97.608 114.135,97.639 114.205 C 97.669 114.276,97.776 114.333,97.876 114.333 C 97.975 114.333,98.175 114.440,98.320 114.571 C 98.754 114.962,102.217 116.667,102.580 116.668 C 102.765 116.668,103.131 116.781,103.394 116.918 C 103.657 117.055,104.045 117.167,104.258 117.167 C 104.471 117.167,104.856 117.252,105.114 117.357 C 106.101 117.758,112.311 118.225,113.640 117.999 C 114.250 117.894,115.125 117.771,115.583 117.724 C 116.042 117.677,116.653 117.532,116.942 117.402 C 117.231 117.273,117.573 117.167,117.703 117.167 C 117.982 117.167,119.473 116.414,120.417 115.796 C 121.399 115.154,122.169 114.376,122.953 113.236 C 123.736 112.096,124.003 111.425,125.029 108.032 C 125.489 106.507,125.859 99.792,125.521 99.088 C 125.432 98.902,125.316 98.548,125.262 98.301 C 125.199 98.011,124.826 97.595,124.207 97.128 C 123.006 96.220,122.797 96.128,119.748 95.166 C 118.285 94.704,108.506 94.326,106.917 94.670 " stroke="none" fill="#646464" fill-rule="evenodd"></path><path id="path1" d="M67.167 18.277 C 61.426 18.810,55.614 22.193,52.511 26.807 C 51.636 28.108,51.302 28.256,48.917 28.403 C 41.575 28.853,35.350 32.748,33.423 38.096 C 32.816 39.782,32.299 40.572,31.538 40.980 C 31.023 41.255,31.074 41.500,31.646 41.500 C 31.910 41.500,32.219 41.612,32.333 41.750 C 32.447 41.887,32.794 42.000,33.104 42.000 C 33.493 42.000,33.667 42.077,33.667 42.250 C 33.667 42.387,33.742 42.500,33.833 42.500 C 33.925 42.500,34.000 42.612,34.000 42.750 C 34.000 42.917,34.167 43.000,34.500 43.000 C 34.775 43.000,35.000 43.075,35.000 43.167 C 35.000 43.258,35.112 43.333,35.250 43.333 C 35.387 43.333,35.500 43.446,35.500 43.583 C 35.500 43.721,35.612 43.833,35.750 43.833 C 35.887 43.833,36.000 43.946,36.000 44.083 C 36.000 44.264,36.185 44.333,36.667 44.333 L 37.333 44.333 37.336 45.042 C 37.337 45.431,37.394 45.670,37.461 45.571 C 37.528 45.473,37.719 45.342,37.886 45.281 C 38.052 45.219,38.141 45.093,38.084 45.001 C 38.027 44.909,38.041 44.833,38.115 44.832 C 38.388 44.829,38.696 43.877,38.913 42.367 C 39.661 37.165,44.153 34.341,50.647 34.991 C 55.649 35.491,56.437 36.906,52.417 38.169 C 48.720 39.331,48.118 43.533,51.574 44.057 C 58.726 45.141,65.170 34.069,59.345 30.706 C 58.014 29.938,58.019 29.885,59.556 28.417 C 64.202 23.980,72.187 23.187,75.972 26.788 C 76.986 27.752,76.844 29.314,75.330 33.842 C 73.510 39.286,73.128 39.733,68.771 41.502 C 62.539 44.034,61.016 45.655,62.876 47.773 C 63.973 49.023,64.765 49.294,69.417 50.012 C 74.738 50.834,76.439 51.968,76.277 54.583 C 76.161 56.464,75.417 57.716,74.000 58.417 C 71.652 59.578,71.508 61.544,73.611 63.711 C 75.297 65.448,75.740 67.130,75.500 70.891 C 75.454 71.611,75.477 72.236,75.550 72.281 C 75.623 72.326,75.594 72.471,75.485 72.602 C 75.324 72.796,75.338 72.821,75.560 72.736 C 75.712 72.678,75.833 72.713,75.833 72.816 C 75.833 72.917,76.058 73.000,76.333 73.000 C 76.667 73.000,76.833 73.083,76.833 73.250 C 76.833 73.387,76.946 73.500,77.083 73.500 C 77.221 73.500,77.333 73.575,77.333 73.667 C 77.333 73.758,77.521 73.833,77.750 73.833 C 78.009 73.833,78.167 73.928,78.167 74.083 C 78.167 74.221,78.279 74.333,78.417 74.333 C 78.583 74.333,78.667 74.500,78.667 74.833 C 78.667 75.306,78.704 75.333,79.333 75.333 C 79.815 75.333,80.000 75.403,80.000 75.583 C 80.000 75.721,80.112 75.833,80.250 75.833 C 80.387 75.833,80.500 75.946,80.500 76.083 C 80.500 76.221,80.612 76.333,80.750 76.333 C 80.887 76.333,81.000 76.408,81.000 76.500 C 81.000 76.592,81.225 76.667,81.500 76.667 C 81.907 76.667,82.000 76.737,82.003 77.042 C 82.009 77.949,82.293 77.820,82.489 76.821 C 82.733 75.581,82.735 73.768,82.495 70.767 C 82.168 66.669,82.600 65.000,84.763 62.000 C 85.391 61.129,86.217 59.817,86.597 59.083 C 87.393 57.551,86.959 57.681,90.500 57.915 C 92.710 58.060,94.961 57.841,96.800 57.303 C 98.580 56.782,98.572 56.765,98.084 60.114 C 97.571 63.627,97.169 65.021,96.027 67.250 C 93.447 72.282,92.734 74.110,92.256 76.917 C 91.957 78.677,91.933 79.943,92.175 81.186 C 92.271 81.679,92.379 82.295,92.414 82.554 C 92.600 83.913,93.005 84.962,93.443 85.219 C 93.570 85.293,93.630 85.424,93.577 85.510 C 93.524 85.597,93.746 85.667,94.073 85.667 C 94.535 85.667,94.667 85.734,94.667 85.969 C 94.667 86.253,94.738 86.258,95.875 86.048 C 96.540 85.926,97.591 85.754,98.211 85.667 C 99.708 85.457,100.000 85.286,100.002 84.619 C 100.005 83.345,101.573 81.524,103.417 80.652 C 105.283 79.770,106.072 79.650,111.083 79.489 C 113.650 79.407,116.388 79.265,117.167 79.173 C 120.349 78.798,121.903 79.832,122.913 83.000 C 123.352 84.374,123.329 84.363,126.068 84.521 C 128.791 84.678,129.240 84.593,129.380 83.888 C 129.769 81.938,129.688 80.262,128.991 75.917 C 128.815 74.817,128.600 73.230,128.514 72.392 C 128.222 69.550,126.764 67.833,124.645 67.833 C 123.413 67.833,122.167 69.145,122.167 70.442 C 122.167 71.948,121.186 72.396,117.732 72.470 C 114.699 72.535,114.625 72.504,115.128 71.379 C 115.590 70.345,115.529 67.010,115.027 65.895 C 113.548 62.607,110.909 63.551,108.134 68.361 C 106.197 71.718,105.697 72.093,102.810 72.343 C 100.242 72.566,100.242 72.565,101.658 69.732 C 103.413 66.223,103.959 64.521,104.592 60.583 C 105.372 55.727,106.278 52.800,108.255 48.745 C 110.847 43.428,110.972 41.678,108.840 40.550 C 106.765 39.453,105.212 40.272,103.356 43.442 C 98.756 51.299,88.724 54.231,84.489 48.957 C 80.267 43.699,80.239 31.348,84.439 26.677 C 86.352 24.549,89.243 24.269,94.073 25.742 C 100.054 27.566,101.537 30.651,98.090 34.098 C 96.946 35.242,96.280 35.434,94.325 35.184 C 90.728 34.722,89.634 35.170,89.141 37.307 C 88.331 40.817,94.213 43.309,98.871 41.428 C 101.161 40.502,102.551 39.363,104.719 36.631 C 107.603 33.000,109.834 32.704,113.981 35.405 C 115.536 36.416,119.280 38.390,121.553 39.397 C 125.933 41.335,129.417 44.496,130.665 47.663 C 131.585 49.995,130.911 50.566,126.879 50.869 C 121.297 51.290,121.377 51.302,118.083 49.508 C 116.641 48.722,114.665 49.514,114.180 51.073 C 114.092 51.356,114.041 53.417,114.066 55.699 L 114.110 59.815 114.564 60.500 C 115.977 62.635,119.403 62.195,120.506 59.737 C 121.400 57.744,121.897 57.583,127.167 57.583 C 132.412 57.583,133.623 57.928,137.611 60.558 C 142.953 64.080,143.604 67.323,139.697 70.949 C 135.405 74.931,136.775 78.712,142.500 78.682 C 144.703 78.671,144.837 78.701,145.146 79.288 C 145.491 79.944,145.588 87.775,145.274 89.671 C 144.601 93.738,143.757 94.540,140.417 94.288 L 139.917 94.250 139.811 95.917 C 139.742 96.997,139.584 97.886,139.360 98.444 C 138.837 99.754,139.699 100.167,142.955 100.167 C 149.420 100.167,152.437 95.935,152.103 87.333 C 151.663 75.979,151.524 75.286,149.392 73.833 C 147.438 72.502,147.318 71.994,148.186 68.713 C 149.637 63.226,146.533 58.122,139.117 53.804 C 137.344 52.771,137.333 52.753,137.333 50.773 C 137.333 42.723,134.289 38.242,126.200 34.388 C 121.793 32.288,119.801 31.291,118.583 30.576 C 113.678 27.694,111.511 27.017,107.882 27.234 C 105.872 27.355,105.333 27.169,105.333 26.356 C 105.333 24.165,102.035 21.321,97.986 20.020 C 90.154 17.505,85.359 17.772,81.389 20.945 C 80.456 21.690,80.178 21.653,78.722 20.590 C 77.432 19.647,76.192 18.993,74.857 18.550 C 74.087 18.294,68.947 18.112,67.167 18.277 M59.167 49.657 C 58.938 49.727,58.225 50.031,57.583 50.332 C 55.382 51.366,54.995 51.489,53.124 51.758 C 52.093 51.906,51.137 52.049,51.000 52.076 C 50.071 52.257,49.667 52.395,49.667 52.531 C 49.667 52.616,49.593 52.641,49.503 52.585 C 49.324 52.475,48.649 52.782,48.472 53.055 C 48.410 53.149,48.235 53.245,48.081 53.267 C 47.626 53.334,47.579 53.500,48.014 53.502 C 48.676 53.506,49.167 53.691,49.167 53.936 C 49.167 54.094,49.377 54.167,49.833 54.167 C 50.315 54.167,50.500 54.236,50.500 54.417 C 50.500 54.583,50.667 54.667,51.000 54.667 C 51.333 54.667,51.500 54.750,51.500 54.917 C 51.500 55.054,51.575 55.167,51.667 55.167 C 51.758 55.167,51.833 55.279,51.833 55.417 C 51.833 55.554,51.946 55.667,52.083 55.667 C 52.239 55.667,52.333 55.824,52.333 56.083 C 52.333 56.466,52.394 56.500,53.083 56.500 C 53.639 56.500,53.833 56.565,53.833 56.750 C 53.833 56.906,53.991 57.000,54.250 57.000 C 54.602 57.000,54.667 57.078,54.667 57.500 C 54.667 57.944,54.722 58.000,55.167 58.000 C 55.442 58.000,55.667 58.075,55.667 58.167 C 55.667 58.258,55.779 58.333,55.917 58.333 C 56.054 58.333,56.167 58.468,56.167 58.633 C 56.167 59.115,56.516 59.333,57.283 59.333 C 57.809 59.333,58.000 59.400,58.000 59.583 C 58.000 59.721,58.104 59.833,58.232 59.833 C 58.359 59.833,58.510 60.016,58.566 60.239 C 58.622 60.462,58.833 60.697,59.034 60.761 C 59.463 60.897,59.833 61.234,59.833 61.488 C 59.833 61.586,59.946 61.667,60.083 61.667 C 60.221 61.667,60.333 61.779,60.333 61.917 C 60.333 62.102,60.528 62.167,61.083 62.167 C 61.639 62.167,61.833 62.231,61.833 62.417 C 61.833 62.554,61.908 62.667,62.000 62.667 C 62.092 62.667,62.167 62.779,62.167 62.917 C 62.167 63.054,62.279 63.167,62.417 63.167 C 62.554 63.167,62.667 63.242,62.667 63.333 C 62.667 63.425,62.892 63.500,63.167 63.500 C 63.611 63.500,63.667 63.556,63.667 64.000 C 63.667 64.472,63.704 64.500,64.333 64.500 C 64.700 64.500,65.000 64.572,65.000 64.659 C 65.000 64.747,65.188 65.095,65.417 65.433 C 65.646 65.770,65.833 65.958,65.833 65.851 C 65.833 65.709,65.922 65.702,66.155 65.827 C 66.547 66.037,66.608 65.863,66.653 64.401 C 66.692 63.146,66.399 62.361,65.215 60.548 C 63.652 58.155,63.323 57.154,62.919 53.552 C 62.517 49.964,61.523 48.932,59.167 49.657 " stroke="none" fill="#12cba2" fill-rule="evenodd"></path><path id="path2" d="M154.708 61.471 C 154.542 61.577,154.507 65.595,154.541 81.010 L 154.583 100.417 157.249 100.463 C 159.609 100.504,159.939 100.476,160.124 100.223 C 160.286 100.002,160.333 97.975,160.333 91.335 C 160.333 84.867,160.383 82.684,160.533 82.533 C 160.674 82.393,161.617 82.333,163.711 82.333 C 167.523 82.333,167.333 82.442,167.333 80.250 C 167.333 78.058,167.523 78.167,163.711 78.167 C 161.617 78.167,160.674 78.107,160.533 77.967 C 160.191 77.624,160.252 65.734,160.597 65.601 C 160.742 65.546,162.788 65.500,165.143 65.500 C 170.468 65.500,170.167 65.629,170.167 63.357 C 170.167 62.316,170.095 61.662,169.967 61.533 C 169.735 61.302,155.069 61.242,154.708 61.471 M286.125 61.513 C 285.855 61.670,285.833 62.157,285.833 67.930 C 285.833 75.142,285.914 74.838,284.332 73.596 C 280.922 70.916,276.542 71.733,274.796 75.375 C 272.535 80.092,272.603 92.239,274.919 97.283 C 276.758 101.287,280.855 102.259,284.527 99.563 C 285.440 98.893,285.833 98.917,285.833 99.641 C 285.833 100.454,286.057 100.513,288.939 100.463 L 291.583 100.417 291.626 81.010 C 291.659 65.595,291.625 61.577,291.459 61.471 C 291.153 61.277,286.468 61.314,286.125 61.513 M297.200 61.533 C 296.910 61.824,296.910 100.010,297.200 100.300 C 297.411 100.511,302.055 100.596,302.570 100.399 C 302.805 100.308,302.833 99.370,302.833 91.516 C 302.833 84.907,302.883 82.684,303.033 82.533 C 303.174 82.393,304.117 82.333,306.211 82.333 C 310.023 82.333,309.833 82.442,309.833 80.250 C 309.833 78.058,310.023 78.167,306.211 78.167 C 304.117 78.167,303.174 78.107,303.033 77.967 C 302.747 77.680,302.747 65.987,303.033 65.700 C 303.179 65.555,304.409 65.500,307.522 65.500 C 313.025 65.500,312.667 65.650,312.667 63.355 C 312.667 61.850,312.621 61.518,312.403 61.434 C 311.864 61.228,297.412 61.322,297.200 61.533 M178.583 72.160 C 175.189 72.620,173.273 74.453,172.319 78.152 C 171.891 79.808,171.837 93.037,172.250 94.790 C 173.291 99.203,175.654 101.000,180.417 101.000 C 185.267 101.000,187.654 99.109,188.620 94.500 C 189.112 92.151,189.055 80.323,188.542 78.293 C 187.318 73.454,184.021 71.424,178.583 72.160 M204.155 72.168 C 203.066 72.353,201.904 72.995,200.727 74.065 C 199.559 75.126,199.387 75.088,199.302 73.750 C 199.259 73.064,199.180 72.889,198.833 72.715 C 198.330 72.461,194.562 72.421,193.928 72.663 L 193.500 72.825 193.500 86.561 C 193.500 98.933,193.526 100.308,193.764 100.399 C 194.321 100.613,198.951 100.510,199.142 100.279 C 199.270 100.126,199.339 97.016,199.371 90.043 L 199.417 80.028 199.918 79.306 C 200.876 77.924,202.627 77.409,204.678 77.908 C 206.261 78.293,206.332 78.223,206.339 76.271 C 206.343 75.325,206.429 74.598,206.568 74.349 L 206.790 73.947 206.967 74.515 C 207.065 74.828,207.263 75.683,207.408 76.417 C 207.553 77.150,207.743 78.087,207.831 78.500 C 207.918 78.912,208.036 79.550,208.094 79.917 C 208.151 80.283,208.375 81.521,208.590 82.667 C 208.806 83.813,209.142 85.612,209.336 86.667 C 209.531 87.721,209.868 89.521,210.085 90.667 C 210.301 91.813,210.790 94.437,211.171 96.500 C 211.552 98.562,211.951 100.304,212.057 100.372 C 212.408 100.595,217.274 100.523,217.456 100.292 C 217.546 100.177,217.704 99.521,217.809 98.833 C 219.237 89.403,220.116 84.186,220.333 83.833 C 220.615 83.377,220.966 84.936,221.741 90.083 C 221.879 91.000,222.183 92.950,222.415 94.417 C 222.648 95.883,222.946 97.789,223.078 98.652 C 223.370 100.573,223.244 100.495,226.083 100.495 C 229.168 100.495,228.599 101.454,230.083 93.750 C 230.507 91.550,231.145 88.250,231.502 86.417 C 231.859 84.583,232.491 81.321,232.907 79.167 C 233.323 77.012,233.781 74.732,233.925 74.100 C 234.279 72.548,234.017 72.407,230.999 72.528 C 228.733 72.619,229.226 71.039,227.325 84.292 C 226.862 87.523,226.388 90.441,226.272 90.775 L 226.061 91.384 225.862 90.900 C 225.658 90.407,225.313 88.262,224.575 82.917 C 224.347 81.267,224.092 79.467,224.007 78.917 C 223.922 78.367,223.730 77.054,223.579 76.000 C 223.097 72.624,223.150 72.788,222.505 72.621 C 221.575 72.380,218.223 72.536,217.939 72.833 C 217.713 73.069,217.502 74.472,215.736 87.482 C 215.018 92.771,214.786 92.610,213.847 86.167 C 213.573 84.287,213.112 81.137,212.824 79.167 C 212.535 77.196,212.212 74.985,212.105 74.254 C 211.851 72.506,211.797 72.478,208.833 72.522 C 207.038 72.549,206.458 72.500,205.964 72.278 C 205.294 71.977,205.285 71.977,204.155 72.168 M243.333 72.168 C 239.773 72.652,237.263 75.318,236.667 79.246 C 236.372 81.193,236.335 81.167,239.327 81.167 C 242.212 81.167,242.230 81.158,242.398 79.721 C 242.680 77.316,244.222 76.121,246.047 76.894 C 247.178 77.372,247.604 78.362,247.768 80.893 C 247.922 83.272,248.052 83.115,244.924 84.334 C 241.285 85.752,238.947 87.494,237.780 89.654 C 234.903 94.981,237.272 100.993,242.250 100.998 C 244.364 101.001,245.548 100.342,246.816 98.458 C 247.640 97.234,248.032 97.438,248.252 99.203 C 248.416 100.522,248.399 100.516,251.439 100.463 C 253.963 100.419,254.083 100.402,254.067 100.083 C 254.058 99.900,253.964 99.075,253.859 98.250 C 253.740 97.318,253.666 93.877,253.664 89.167 C 253.660 79.561,253.499 77.909,252.374 75.957 C 250.665 72.992,247.385 71.618,243.333 72.168 M268.910 72.163 C 267.809 72.327,267.171 72.665,265.697 73.864 C 264.273 75.023,264.000 74.987,264.000 73.642 C 264.000 72.918,263.951 72.807,263.572 72.663 C 262.836 72.383,258.969 72.457,258.537 72.759 L 258.167 73.019 258.167 86.572 C 258.167 97.911,258.204 100.157,258.397 100.317 C 258.555 100.448,259.464 100.494,261.272 100.463 L 263.917 100.417 264.000 90.417 C 264.089 79.686,264.072 79.892,264.969 78.943 C 266.043 77.806,267.598 77.450,269.476 77.911 C 270.121 78.069,270.727 78.149,270.824 78.089 C 271.027 77.964,271.076 72.398,270.875 72.279 C 270.572 72.101,269.684 72.048,268.910 72.163 M321.036 72.167 C 317.734 72.631,315.626 74.836,314.826 78.667 C 314.548 79.997,314.420 90.620,314.655 92.865 C 315.271 98.743,317.618 101.000,323.117 101.000 C 327.673 101.000,329.902 99.391,331.133 95.214 C 331.554 93.785,331.561 79.397,331.141 78.000 C 329.728 73.297,326.453 71.407,321.036 72.167 M341.451 72.172 C 336.486 72.949,334.750 76.704,334.750 86.667 C 334.750 97.359,336.706 100.809,342.862 100.971 C 348.498 101.120,351.660 98.005,351.665 92.298 C 351.667 90.853,351.627 90.833,348.711 90.833 C 346.043 90.833,346.000 90.854,346.000 92.134 C 346.000 96.919,341.949 98.224,340.726 93.833 C 340.330 92.409,340.270 82.067,340.646 79.974 C 341.572 74.817,345.950 76.027,345.994 81.452 C 346.002 82.415,346.232 82.500,348.833 82.500 C 351.642 82.500,351.667 82.486,351.665 80.952 C 351.659 74.733,347.566 71.215,341.451 72.172 M382.750 72.164 C 378.183 72.785,375.547 76.117,376.165 80.486 C 376.519 82.996,377.333 83.943,382.417 87.764 C 386.973 91.190,387.473 91.819,387.299 93.909 C 387.000 97.519,382.730 97.202,380.948 93.437 C 380.398 92.276,380.330 92.262,378.346 92.897 C 376.081 93.622,376.032 93.678,376.488 95.046 C 377.816 99.037,380.301 100.875,384.503 100.973 C 390.485 101.112,393.758 97.851,393.038 92.467 C 392.658 89.621,391.232 87.853,386.333 84.159 C 381.927 80.836,381.498 80.290,381.989 78.625 C 382.889 75.575,386.457 76.158,388.178 79.636 C 388.821 80.937,388.918 80.974,390.393 80.496 C 393.392 79.524,393.442 79.427,392.250 76.977 C 390.387 73.149,387.237 71.553,382.750 72.164 M355.625 72.694 L 355.167 72.861 355.167 84.733 C 355.167 92.563,355.228 96.939,355.348 97.585 C 356.097 101.638,360.696 102.280,365.125 98.951 C 366.190 98.150,366.459 98.265,366.533 99.555 L 366.583 100.417 369.228 100.463 C 371.036 100.494,371.945 100.448,372.103 100.317 C 372.296 100.157,372.333 97.911,372.333 86.572 L 372.333 73.019 371.963 72.759 C 371.531 72.457,367.664 72.383,366.928 72.663 L 366.500 72.825 366.500 83.590 C 366.500 94.983,366.519 94.702,365.690 95.438 C 364.278 96.690,362.551 97.006,361.628 96.180 L 361.083 95.694 361.038 84.258 L 360.993 72.823 360.569 72.661 C 360.018 72.452,356.219 72.477,355.625 72.694 M181.811 77.115 C 182.052 77.291,182.438 77.805,182.667 78.259 L 183.083 79.083 183.083 86.417 C 183.083 93.100,183.056 93.828,182.778 94.627 C 181.963 96.963,179.287 97.126,178.167 94.908 L 177.750 94.083 177.750 86.583 L 177.750 79.083 178.142 78.218 C 178.801 76.760,180.583 76.225,181.811 77.115 M283.835 77.001 C 284.452 77.184,285.154 77.490,285.395 77.679 L 285.833 78.024 285.833 86.667 C 285.833 96.323,285.918 95.669,284.617 96.006 C 284.232 96.106,283.654 96.258,283.333 96.343 C 279.839 97.272,278.947 95.173,278.940 86.000 C 278.933 77.212,279.716 75.774,283.835 77.001 M324.025 76.903 C 324.709 77.189,325.036 77.539,325.440 78.417 C 325.967 79.563,325.981 92.980,325.457 94.497 C 324.413 97.518,321.076 97.053,320.475 93.802 C 320.170 92.149,320.156 80.868,320.458 79.417 C 320.928 77.151,322.302 76.183,324.025 76.903 M42.819 84.734 C 42.781 84.770,40.800 84.889,38.417 84.997 C 28.120 85.464,26.826 86.388,26.837 93.264 C 26.843 97.378,27.243 98.709,28.848 99.955 C 30.053 100.890,30.132 101.118,30.337 104.241 C 31.301 118.930,38.236 126.452,50.750 126.380 C 67.285 126.286,76.252 120.876,79.836 108.833 C 80.660 106.065,80.792 105.763,81.317 105.453 C 82.710 104.630,83.445 105.393,84.345 108.596 C 85.032 111.045,87.001 115.517,87.616 116.027 C 87.736 116.126,87.835 116.292,87.837 116.395 C 87.838 116.499,88.218 117.067,88.680 117.658 C 93.709 124.088,99.783 126.374,111.917 126.402 C 123.936 126.430,130.198 121.710,133.111 110.428 C 133.618 108.467,133.738 107.625,133.996 104.250 C 134.234 101.143,134.339 100.795,135.222 100.181 C 137.185 98.817,137.488 98.078,137.616 94.333 C 137.885 86.457,136.619 85.379,126.667 85.012 C 118.471 84.710,118.041 84.704,114.333 84.855 C 101.476 85.378,96.752 86.216,89.583 89.245 C 83.847 91.669,79.895 91.606,74.718 89.008 C 70.061 86.671,64.382 85.332,57.028 84.838 C 54.613 84.676,42.968 84.590,42.819 84.734 M247.633 87.533 C 247.775 87.675,247.833 88.662,247.833 90.911 C 247.833 94.532,247.751 94.839,246.521 95.785 C 243.757 97.911,241.102 94.408,242.877 90.978 C 243.786 89.223,246.997 86.897,247.633 87.533 M57.741 94.175 C 68.910 95.009,73.288 98.808,71.759 106.335 C 70.238 113.818,64.267 117.899,54.083 118.416 C 44.159 118.920,39.656 115.187,38.342 105.365 C 38.102 103.572,38.085 99.558,38.314 98.725 C 39.290 95.174,46.984 93.371,57.741 94.175 M118.167 94.407 C 122.275 94.971,125.339 96.619,125.906 98.571 C 126.465 100.494,126.244 104.532,125.344 108.860 C 123.997 115.332,119.533 118.423,111.583 118.389 C 99.657 118.336,93.158 113.634,92.369 104.486 C 91.828 98.220,96.086 95.037,106.167 94.171 C 108.554 93.966,116.022 94.113,118.167 94.407 " stroke="none" fill="#f7f7f7" fill-rule="evenodd"></path><path id="path3" d="M66.245 18.166 C 60.904 18.907,55.383 22.181,52.496 26.319 C 51.354 27.954,51.244 28.007,48.643 28.169 C 41.282 28.627,35.003 32.635,32.988 38.164 C 32.436 39.677,31.850 40.217,30.372 40.576 C 27.920 41.172,24.874 43.414,22.955 46.037 C 21.323 48.266,20.836 49.545,20.160 53.376 C 19.940 54.618,19.234 55.744,18.182 56.527 C 14.092 59.570,12.167 63.764,12.167 69.629 C 12.167 71.530,12.091 72.705,11.934 73.261 C 11.806 73.713,11.659 74.271,11.607 74.500 C 11.555 74.729,11.165 75.442,10.741 76.083 C 6.907 81.879,5.466 90.114,7.432 95.000 C 8.325 97.220,9.526 99.759,9.870 100.154 C 12.335 102.984,15.255 103.419,21.667 101.911 C 22.262 101.771,23.275 101.577,23.917 101.480 C 24.558 101.383,25.244 101.274,25.440 101.237 C 26.122 101.108,26.013 100.707,25.028 99.714 C 23.981 98.660,23.500 97.567,23.500 96.242 C 23.500 94.726,23.099 94.418,21.666 94.837 C 19.797 95.382,15.809 95.661,15.309 95.281 C 14.005 94.289,13.320 90.362,13.928 87.368 C 14.617 83.971,16.414 79.699,16.737 80.690 C 16.777 80.814,16.970 81.621,17.166 82.483 C 18.647 89.010,24.714 89.103,24.289 82.592 C 24.145 80.393,23.364 78.197,20.894 73.038 C 18.536 68.116,18.611 66.880,21.484 63.291 C 23.022 61.369,23.889 61.364,27.218 63.255 C 28.691 64.092,28.773 64.170,29.344 65.271 C 29.671 65.901,30.412 67.054,30.990 67.833 C 33.080 70.648,33.660 72.060,33.664 74.343 C 33.667 75.967,33.618 76.061,32.388 76.798 C 27.815 79.538,26.854 82.772,30.125 84.412 C 30.920 84.811,31.255 85.167,30.835 85.167 C 30.539 85.167,29.000 85.892,29.000 86.031 C 29.000 86.106,28.925 86.167,28.833 86.167 C 28.588 86.167,27.349 87.487,27.049 88.067 C 26.090 89.921,26.061 96.891,27.005 98.681 C 27.229 99.106,28.549 100.500,28.728 100.500 C 29.387 100.500,29.668 101.718,29.999 106.000 C 30.167 108.168,30.439 110.011,30.676 110.583 C 30.752 110.767,30.865 111.177,30.928 111.495 C 30.991 111.812,31.100 112.187,31.170 112.328 C 31.240 112.468,31.426 113.033,31.583 113.583 C 32.079 115.317,33.695 118.435,34.833 119.856 C 37.827 123.593,40.818 125.491,45.434 126.582 C 46.832 126.912,54.696 126.962,56.417 126.652 C 56.967 126.552,58.017 126.410,58.750 126.334 C 59.483 126.259,60.608 126.076,61.250 125.928 C 61.892 125.780,62.829 125.580,63.333 125.484 C 63.837 125.388,64.365 125.249,64.505 125.176 C 64.646 125.102,65.001 124.990,65.295 124.925 C 65.589 124.860,65.872 124.738,65.925 124.654 C 65.977 124.569,66.163 124.500,66.338 124.500 C 68.170 124.500,73.006 121.108,75.583 118.015 C 77.048 116.256,79.500 112.104,79.500 111.381 C 79.500 111.284,79.612 110.990,79.749 110.727 C 79.886 110.465,79.998 110.096,79.999 109.908 C 80.000 109.720,80.071 109.495,80.157 109.408 C 80.304 109.260,80.520 108.526,80.815 107.167 C 81.359 104.665,82.930 105.335,83.746 108.417 C 84.127 109.856,84.332 110.485,84.696 111.333 C 84.873 111.746,85.081 112.233,85.157 112.417 C 85.576 113.425,86.918 115.990,87.264 116.447 C 87.486 116.739,87.667 117.049,87.667 117.135 C 87.667 117.222,87.789 117.394,87.939 117.519 C 88.089 117.643,88.401 118.045,88.632 118.411 C 89.138 119.212,90.877 120.926,92.250 121.975 C 92.800 122.396,93.332 122.819,93.433 122.916 C 93.668 123.142,96.190 124.381,97.167 124.751 C 97.579 124.907,98.045 125.101,98.203 125.182 C 98.360 125.263,98.810 125.408,99.203 125.505 C 101.984 126.192,102.395 126.274,104.966 126.654 C 107.267 126.995,116.724 126.956,118.167 126.600 C 121.209 125.850,123.488 124.905,125.417 123.596 C 126.422 122.913,128.828 120.698,128.831 120.451 C 128.832 120.379,128.992 120.154,129.187 119.951 C 129.929 119.178,132.000 115.624,132.000 115.124 C 132.000 114.979,132.170 114.551,132.746 113.250 C 133.270 112.066,133.500 111.286,133.500 110.697 C 133.500 110.350,133.584 109.983,133.687 109.880 C 133.790 109.777,133.933 109.218,134.005 108.638 C 134.077 108.058,134.217 107.283,134.314 106.917 C 134.412 106.550,134.497 105.425,134.503 104.417 C 134.517 102.200,134.788 101.021,135.364 100.669 C 137.652 99.268,138.236 97.660,138.120 93.083 C 137.963 86.958,136.461 85.167,131.130 84.751 L 129.678 84.638 129.766 83.027 C 129.814 82.141,129.881 81.280,129.914 81.113 C 129.948 80.946,129.792 79.558,129.569 78.029 C 129.345 76.501,129.052 74.364,128.918 73.282 C 128.542 70.249,128.101 69.239,126.745 68.301 C 124.648 66.851,122.499 67.632,121.981 70.032 C 121.573 71.920,121.122 72.180,118.049 72.296 C 115.693 72.385,115.079 72.291,115.255 71.868 C 116.266 69.446,115.806 65.767,114.326 64.430 C 112.506 62.785,110.208 64.116,107.917 68.140 C 105.991 71.522,105.729 71.728,102.992 72.009 C 100.746 72.239,100.764 72.277,101.969 69.807 C 103.786 66.083,104.210 64.731,104.916 60.417 C 105.730 55.436,106.651 52.536,108.831 48.083 C 111.268 43.107,111.105 41.030,108.203 40.089 C 106.280 39.465,105.003 40.258,103.252 43.164 C 99.322 49.685,92.994 52.643,87.083 50.720 C 82.374 49.188,79.948 37.341,82.820 29.895 C 84.441 25.691,86.611 24.485,91.175 25.251 C 98.829 26.537,101.640 29.963,98.147 33.752 C 96.901 35.104,96.311 35.251,93.637 34.879 C 91.341 34.559,90.631 34.688,89.764 35.580 C 88.005 37.392,88.675 39.906,91.289 41.294 C 95.746 43.663,100.936 41.953,104.834 36.833 C 105.954 35.362,106.788 34.586,107.739 34.133 C 108.280 33.876,108.319 33.832,107.933 33.915 C 107.070 34.101,106.032 34.979,104.719 36.631 C 102.547 39.367,101.162 40.502,98.860 41.432 C 94.213 43.309,88.332 40.813,89.141 37.307 C 89.634 35.170,90.728 34.722,94.325 35.184 C 97.244 35.558,99.884 33.379,99.899 30.583 C 99.915 27.670,94.333 24.834,88.583 24.834 C 79.194 24.833,78.648 49.111,87.989 51.236 C 93.699 52.535,99.863 49.409,103.356 43.442 C 105.212 40.272,106.765 39.453,108.840 40.550 C 110.972 41.678,110.847 43.428,108.255 48.745 C 106.278 52.800,105.372 55.727,104.592 60.583 C 103.959 64.521,103.413 66.223,101.658 69.732 C 100.242 72.565,100.242 72.566,102.810 72.343 C 105.697 72.093,106.197 71.718,108.134 68.361 C 110.909 63.551,113.548 62.607,115.027 65.895 C 115.529 67.010,115.590 70.345,115.128 71.379 C 114.625 72.504,114.699 72.535,117.732 72.470 C 121.186 72.396,122.167 71.948,122.167 70.442 C 122.167 69.145,123.413 67.833,124.645 67.833 C 126.764 67.833,128.222 69.550,128.514 72.392 C 128.600 73.230,128.815 74.817,128.991 75.917 C 129.688 80.262,129.769 81.938,129.380 83.888 C 129.240 84.593,128.791 84.678,126.068 84.521 C 123.329 84.363,123.352 84.374,122.913 83.000 C 121.903 79.832,120.349 78.798,117.167 79.173 C 116.388 79.265,113.650 79.407,111.083 79.489 C 106.072 79.650,105.283 79.770,103.417 80.652 C 101.582 81.520,100.005 83.345,100.002 84.605 C 100.000 85.292,99.838 85.391,98.167 85.732 C 97.388 85.890,96.139 86.203,95.393 86.427 C 93.221 87.077,93.249 87.094,92.733 84.870 C 92.038 81.873,91.875 79.158,92.256 76.917 C 92.734 74.110,93.447 72.282,96.027 67.250 C 97.169 65.021,97.571 63.627,98.084 60.114 C 98.572 56.765,98.580 56.782,96.800 57.303 C 94.961 57.841,92.710 58.060,90.500 57.915 C 86.959 57.681,87.393 57.551,86.597 59.083 C 86.217 59.817,85.391 61.129,84.763 62.000 C 82.446 65.213,82.176 66.459,82.584 72.039 C 82.778 74.686,82.817 76.744,82.737 80.167 C 82.613 85.456,82.807 86.968,83.895 89.204 C 84.442 90.329,84.464 90.433,84.200 90.645 C 83.268 91.393,86.470 90.560,89.583 89.245 C 96.752 86.216,101.476 85.378,114.333 84.855 C 118.041 84.704,118.471 84.710,126.667 85.012 C 136.619 85.379,137.885 86.457,137.616 94.333 C 137.488 98.078,137.185 98.817,135.222 100.181 C 134.339 100.795,134.234 101.143,133.996 104.250 C 133.651 108.767,133.235 110.721,131.921 113.989 C 129.097 121.017,125.456 124.225,118.250 126.036 C 116.286 126.530,108.472 126.575,104.973 126.112 C 97.189 125.083,92.642 122.724,88.680 117.658 C 88.218 117.067,87.838 116.499,87.837 116.395 C 87.835 116.292,87.736 116.126,87.616 116.027 C 87.001 115.517,85.032 111.045,84.345 108.596 C 83.445 105.393,82.710 104.630,81.317 105.453 C 80.792 105.763,80.660 106.065,79.836 108.833 C 76.252 120.876,67.285 126.286,50.750 126.380 C 38.236 126.452,31.301 118.930,30.337 104.241 C 30.132 101.118,30.053 100.890,28.848 99.955 C 27.243 98.709,26.843 97.378,26.837 93.264 C 26.825 85.382,28.534 84.750,49.850 84.750 C 55.063 84.750,56.883 84.701,56.699 84.566 C 56.380 84.333,56.523 81.943,56.980 79.863 C 57.445 77.748,57.437 77.745,53.704 78.489 C 47.693 79.687,45.019 78.763,45.582 75.682 C 46.520 70.550,54.610 69.522,65.395 73.164 C 73.537 75.914,75.842 74.690,75.426 67.833 C 75.299 65.732,75.071 65.215,73.611 63.711 C 71.508 61.544,71.652 59.578,74.000 58.417 C 75.417 57.716,76.161 56.464,76.277 54.583 C 76.439 51.968,74.738 50.834,69.417 50.012 C 64.765 49.294,63.973 49.023,62.876 47.773 C 61.016 45.655,62.539 44.034,68.771 41.502 C 73.128 39.733,73.510 39.286,75.330 33.842 C 76.844 29.314,76.986 27.752,75.972 26.788 C 72.187 23.187,64.202 23.980,59.556 28.417 C 58.019 29.885,58.014 29.938,59.345 30.706 C 65.170 34.069,58.726 45.141,51.574 44.057 C 48.118 43.533,48.720 39.331,52.417 38.169 C 56.437 36.906,55.649 35.491,50.647 34.991 C 44.007 34.327,39.597 37.193,38.894 42.628 C 38.329 46.996,37.243 48.117,34.249 47.422 C 32.658 47.054,32.091 47.098,31.023 47.673 C 27.160 49.756,25.463 54.337,27.834 56.282 C 28.741 57.026,29.021 56.967,30.199 55.783 C 31.893 54.080,33.623 53.419,39.250 52.325 C 41.565 51.875,42.579 51.909,44.691 52.507 L 46.480 53.014 48.276 52.581 C 49.263 52.343,50.674 52.077,51.411 51.990 C 54.820 51.585,55.037 51.527,57.640 50.306 C 61.243 48.616,62.449 49.357,62.919 53.552 C 63.326 57.180,63.652 58.165,65.257 60.601 C 66.518 62.516,66.825 63.242,66.830 64.314 C 66.849 69.024,63.116 67.910,56.031 61.090 C 54.454 59.571,53.911 59.297,52.426 59.271 L 51.250 59.250 51.147 60.917 C 50.832 66.034,47.366 66.414,44.917 61.600 C 43.353 58.525,42.033 57.981,38.416 58.921 C 35.242 59.746,35.017 60.210,36.676 62.514 C 39.093 65.871,40.279 69.444,40.456 73.897 L 40.548 76.211 41.362 77.397 C 41.810 78.050,42.622 79.146,43.169 79.833 C 44.587 81.619,45.371 83.400,45.002 83.997 C 44.801 84.322,41.987 84.483,35.976 84.514 L 31.034 84.540 30.147 84.061 C 27.336 82.547,28.427 79.476,32.653 77.008 C 34.039 76.198,34.062 76.144,33.974 73.789 C 33.896 71.691,33.384 70.486,31.482 67.923 C 30.804 67.010,29.988 65.746,29.667 65.113 C 29.100 63.995,29.038 63.937,27.500 63.061 C 23.619 60.851,22.841 60.910,20.850 63.567 C 18.338 66.917,18.244 68.211,20.211 72.333 C 20.758 73.479,21.391 74.829,21.618 75.333 C 21.845 75.837,22.177 76.571,22.356 76.964 C 24.730 82.189,24.330 87.000,21.521 87.000 C 19.322 87.000,18.103 85.412,17.330 81.543 C 16.946 79.624,16.474 79.565,15.587 81.325 C 12.826 86.808,12.605 93.499,15.119 95.504 C 15.699 95.966,18.070 95.891,20.905 95.320 C 23.054 94.888,23.086 94.905,23.211 96.562 C 23.319 97.983,23.703 98.852,24.703 99.937 C 25.076 100.342,25.343 100.713,25.295 100.760 C 25.210 100.846,22.718 101.399,19.750 101.993 C 14.196 103.103,11.062 102.124,9.515 98.796 C 8.385 96.364,7.682 94.693,7.428 93.833 C 6.029 89.097,7.520 81.806,11.006 76.333 C 12.184 74.485,12.344 73.793,12.507 69.833 C 12.761 63.668,14.306 59.968,17.738 57.305 C 19.861 55.658,20.096 55.263,20.746 52.246 C 22.042 46.235,25.734 42.122,31.132 40.674 C 32.209 40.385,32.746 39.777,33.420 38.083 C 35.615 32.561,41.547 28.855,48.917 28.403 C 51.302 28.256,51.636 28.108,52.511 26.807 C 56.321 21.142,62.251 18.285,70.250 18.261 C 74.878 18.247,75.989 18.558,78.829 20.663 C 80.159 21.650,80.465 21.683,81.389 20.945 C 85.359 17.772,90.154 17.505,97.986 20.020 C 102.035 21.321,105.333 24.165,105.333 26.356 C 105.333 27.169,105.872 27.355,107.882 27.234 C 111.511 27.017,113.678 27.694,118.583 30.576 C 119.801 31.291,121.793 32.288,126.200 34.388 C 134.289 38.242,137.333 42.723,137.333 50.773 C 137.333 52.753,137.344 52.771,139.117 53.804 C 146.533 58.122,149.637 63.226,148.186 68.713 C 147.318 71.994,147.438 72.502,149.392 73.833 C 151.524 75.286,151.663 75.979,152.103 87.333 C 152.437 95.935,149.420 100.167,142.955 100.167 C 139.699 100.167,138.837 99.754,139.360 98.444 C 139.584 97.886,139.742 96.997,139.811 95.917 L 139.917 94.250 140.417 94.288 C 143.757 94.540,144.601 93.738,145.274 89.671 C 145.588 87.775,145.491 79.944,145.146 79.288 C 144.837 78.701,144.703 78.671,142.500 78.682 C 136.775 78.712,135.405 74.931,139.697 70.949 C 143.604 67.323,142.953 64.080,137.611 60.558 C 133.623 57.928,132.412 57.583,127.167 57.583 C 121.897 57.583,121.400 57.744,120.506 59.737 C 119.403 62.195,115.977 62.635,114.564 60.500 L 114.110 59.815 114.066 55.699 C 114.041 53.417,114.092 51.356,114.180 51.073 C 114.665 49.514,116.641 48.722,118.083 49.508 C 121.377 51.302,121.297 51.290,126.879 50.869 C 130.911 50.566,131.585 49.995,130.665 47.663 C 129.417 44.496,125.933 41.335,121.553 39.397 C 119.280 38.390,115.536 36.416,113.981 35.405 C 111.891 34.043,110.873 33.658,109.462 33.692 L 108.417 33.717 109.667 33.831 C 111.154 33.968,112.194 34.408,114.167 35.736 C 114.946 36.261,116.746 37.254,118.167 37.944 C 119.587 38.634,121.378 39.504,122.147 39.877 C 126.021 41.761,128.876 44.327,130.188 47.103 C 131.487 49.851,130.984 50.398,126.917 50.666 C 125.633 50.751,124.017 50.870,123.325 50.931 C 121.773 51.069,120.714 50.794,119.139 49.844 C 115.831 47.846,113.456 49.383,113.753 53.330 C 113.900 55.294,113.902 55.392,113.818 57.833 C 113.716 60.810,114.733 62.000,117.381 62.000 C 119.162 62.000,120.297 61.222,120.813 59.650 C 121.344 58.030,122.280 57.750,127.167 57.750 C 132.037 57.750,132.633 57.889,136.000 59.808 C 140.013 62.096,141.893 64.280,141.906 66.669 C 141.914 68.286,141.632 68.775,139.548 70.750 C 135.123 74.944,136.502 78.964,142.337 78.880 C 145.317 78.837,145.147 78.449,145.104 85.167 C 145.056 92.774,143.970 94.947,140.686 94.006 C 139.695 93.721,139.561 93.925,139.458 95.868 C 139.397 97.024,139.257 97.861,139.028 98.437 C 138.412 99.985,139.288 100.420,143.000 100.411 C 146.252 100.403,148.281 99.568,149.949 97.552 C 152.241 94.780,152.717 91.968,152.267 83.862 C 151.824 75.891,151.624 75.218,149.154 73.374 C 147.602 72.215,147.544 71.767,148.507 68.333 C 149.918 63.298,146.620 58.073,139.250 53.668 C 137.386 52.554,137.506 52.765,137.502 50.583 C 137.487 42.351,134.229 37.827,125.417 33.803 C 122.636 32.533,119.895 31.142,117.890 29.984 C 113.662 27.543,112.318 27.117,108.748 27.089 C 105.682 27.065,105.756 27.090,105.426 25.981 C 104.403 22.536,101.377 20.523,94.833 18.935 C 88.945 17.505,84.982 17.992,81.558 20.566 C 80.297 21.514,80.362 21.517,78.930 20.471 C 77.674 19.554,76.440 18.891,75.083 18.405 C 74.140 18.067,68.129 17.904,66.245 18.166 M72.583 25.208 C 75.271 26.117,76.333 26.994,76.333 28.303 C 76.333 30.399,74.529 36.020,73.061 38.500 C 72.376 39.657,71.922 39.940,68.611 41.273 C 62.659 43.670,61.055 45.167,62.151 47.298 C 63.026 48.998,64.379 49.592,68.695 50.169 C 74.324 50.923,76.186 52.092,75.966 54.737 C 75.836 56.307,75.162 57.391,73.833 58.167 C 71.174 59.720,71.016 61.529,73.332 63.923 C 74.711 65.350,74.948 65.882,75.088 67.870 C 75.292 70.777,74.618 73.498,73.577 73.973 C 72.479 74.473,68.789 73.999,65.884 72.985 C 56.702 69.781,49.602 69.888,46.504 73.277 C 43.749 76.291,45.368 79.432,49.645 79.374 C 51.077 79.354,51.847 79.232,54.761 78.565 C 56.829 78.091,56.916 78.157,56.586 79.939 C 56.452 80.660,56.284 81.925,56.213 82.750 L 56.083 84.250 50.833 84.212 L 45.583 84.174 45.474 83.545 C 45.263 82.333,44.754 81.409,43.033 79.115 C 40.776 76.106,40.836 76.239,40.834 74.250 C 40.830 70.170,39.495 65.901,37.239 62.757 C 35.401 60.195,35.473 60.028,38.813 59.155 C 41.846 58.362,43.197 58.937,44.483 61.569 C 47.075 66.872,51.500 66.355,51.500 60.749 C 51.500 59.518,51.641 59.406,52.956 59.590 C 53.910 59.723,54.644 60.172,55.853 61.360 C 62.841 68.231,67.097 69.406,67.154 64.479 C 67.170 63.123,66.947 62.562,65.576 60.491 C 64.044 58.179,63.516 56.557,63.248 53.333 C 62.895 49.080,61.355 48.260,57.236 50.130 C 54.879 51.200,54.569 51.292,52.583 51.509 C 50.980 51.684,49.823 51.890,47.500 52.415 C 46.530 52.634,46.321 52.631,45.500 52.392 C 42.227 51.439,41.778 51.440,37.206 52.414 C 33.326 53.241,30.923 54.296,29.765 55.683 C 28.939 56.673,28.552 56.659,27.625 55.605 C 26.486 54.308,26.921 52.146,28.755 50.000 C 30.336 48.150,31.571 47.421,32.881 47.564 C 37.974 48.120,38.595 47.649,39.239 42.745 C 39.915 37.604,43.577 34.964,49.667 35.227 C 55.034 35.460,56.107 36.606,52.196 37.928 C 47.278 39.590,48.207 45.139,53.267 44.331 C 60.730 43.138,65.048 33.365,59.416 30.416 C 58.505 29.939,58.519 29.746,59.531 28.765 C 63.062 25.345,68.559 23.846,72.583 25.208 M98.065 57.470 C 98.180 57.657,97.714 60.921,97.311 62.750 C 96.838 64.891,96.605 65.513,95.465 67.667 C 93.137 72.067,92.300 74.264,91.840 77.180 C 91.442 79.704,91.962 84.514,92.840 86.417 C 93.164 87.120,92.900 87.667,92.237 87.667 C 92.113 87.667,91.728 87.790,91.381 87.940 C 91.034 88.090,90.600 88.273,90.417 88.346 C 90.233 88.419,89.572 88.709,88.947 88.989 C 88.322 89.270,87.743 89.500,87.661 89.500 C 87.579 89.500,87.265 89.604,86.964 89.730 C 85.048 90.535,84.876 90.492,84.201 89.034 C 83.136 86.731,83.085 86.320,83.125 80.333 C 83.150 76.667,83.079 73.877,82.906 71.699 C 82.530 66.955,82.839 65.268,84.512 62.917 C 85.931 60.922,86.766 59.607,86.998 59.000 C 87.373 58.020,87.596 57.852,88.300 58.015 C 90.101 58.434,96.719 58.003,97.292 57.430 C 97.436 57.286,97.968 57.313,98.065 57.470 M154.375 61.089 L 154.000 61.352 154.000 80.914 C 154.000 98.476,154.027 100.503,154.262 100.738 C 154.650 101.127,160.183 101.127,160.571 100.738 C 160.803 100.507,160.833 99.454,160.833 91.673 C 160.833 83.799,160.861 82.858,161.097 82.768 C 161.242 82.712,162.727 82.667,164.397 82.667 C 168.087 82.667,167.833 82.846,167.833 80.237 C 167.833 77.587,168.097 77.764,164.056 77.696 L 160.829 77.641 160.873 71.779 L 160.917 65.917 165.583 65.833 C 168.150 65.787,170.344 65.689,170.458 65.615 C 170.711 65.452,170.750 61.557,170.504 61.167 C 170.257 60.776,154.925 60.702,154.375 61.089 M285.833 60.949 C 285.361 61.139,285.338 61.432,285.336 67.375 C 285.333 73.835,285.336 73.815,284.458 72.997 C 281.364 70.115,275.696 71.600,273.917 75.759 C 272.669 78.677,272.077 87.855,272.853 92.250 C 273.189 94.152,273.532 95.585,273.765 96.067 C 273.894 96.333,274.000 96.626,274.000 96.717 C 274.000 97.784,276.064 100.260,277.562 100.990 C 278.794 101.590,281.932 101.756,282.593 101.255 C 282.771 101.121,283.018 101.008,283.142 101.005 C 283.267 101.002,283.708 100.771,284.123 100.491 C 284.884 99.977,285.333 99.946,285.333 100.406 C 285.333 101.084,291.466 101.348,292.058 100.695 C 292.482 100.227,292.482 61.498,292.058 61.145 C 291.771 60.907,286.363 60.736,285.833 60.949 M297.000 60.952 C 296.862 61.006,296.695 61.132,296.628 61.233 C 296.349 61.651,296.481 100.457,296.762 100.738 C 297.129 101.105,302.596 101.127,303.093 100.764 C 303.405 100.535,303.418 100.215,303.467 91.727 C 303.504 85.110,303.566 82.894,303.717 82.799 C 303.827 82.729,305.274 82.671,306.933 82.669 C 310.687 82.666,310.500 82.794,310.500 80.227 C 310.500 77.603,310.735 77.763,306.763 77.691 L 303.500 77.631 303.500 71.732 L 303.500 65.833 308.157 65.833 C 313.756 65.833,313.333 66.038,313.333 63.328 C 313.333 60.651,314.254 60.922,305.055 60.886 C 300.762 60.869,297.137 60.899,297.000 60.952 M169.967 61.533 C 170.095 61.662,170.167 62.316,170.167 63.357 C 170.167 65.629,170.468 65.500,165.143 65.500 C 162.788 65.500,160.742 65.546,160.597 65.601 C 160.252 65.734,160.191 77.624,160.533 77.967 C 160.674 78.107,161.617 78.167,163.711 78.167 C 167.523 78.167,167.333 78.058,167.333 80.250 C 167.333 82.442,167.523 82.333,163.711 82.333 C 161.617 82.333,160.674 82.393,160.533 82.533 C 160.383 82.684,160.333 84.867,160.333 91.335 C 160.333 97.975,160.286 100.002,160.124 100.223 C 159.939 100.476,159.609 100.504,157.249 100.463 L 154.583 100.417 154.541 81.010 C 154.507 65.595,154.542 61.577,154.708 61.471 C 155.069 61.242,169.735 61.302,169.967 61.533 M291.459 61.471 C 291.625 61.577,291.659 65.595,291.626 81.010 L 291.583 100.417 288.939 100.463 C 286.057 100.513,285.833 100.454,285.833 99.641 C 285.833 98.917,285.440 98.893,284.527 99.563 C 280.855 102.259,276.758 101.287,274.919 97.283 C 272.603 92.239,272.535 80.092,274.796 75.375 C 276.542 71.733,280.922 70.916,284.332 73.596 C 285.914 74.838,285.833 75.142,285.833 67.930 C 285.833 62.157,285.855 61.670,286.125 61.513 C 286.468 61.314,291.153 61.277,291.459 61.471 M312.403 61.434 C 312.621 61.518,312.667 61.850,312.667 63.355 C 312.667 65.650,313.025 65.500,307.522 65.500 C 304.409 65.500,303.179 65.555,303.033 65.700 C 302.747 65.987,302.747 77.680,303.033 77.967 C 303.174 78.107,304.117 78.167,306.211 78.167 C 310.023 78.167,309.833 78.058,309.833 80.250 C 309.833 82.442,310.023 82.333,306.211 82.333 C 304.117 82.333,303.174 82.393,303.033 82.533 C 302.883 82.684,302.833 84.907,302.833 91.516 C 302.833 99.370,302.805 100.308,302.570 100.399 C 302.055 100.596,297.411 100.511,297.200 100.300 C 296.910 100.010,296.910 61.824,297.200 61.533 C 297.412 61.322,311.864 61.228,312.403 61.434 M177.000 71.943 C 175.176 72.738,174.597 73.114,173.729 74.063 C 173.216 74.624,172.721 75.271,172.628 75.500 C 171.404 78.514,171.334 79.111,171.334 86.500 C 171.334 97.041,172.287 99.545,176.911 101.154 C 178.213 101.607,182.556 101.661,183.705 101.238 C 186.709 100.133,188.229 98.402,189.108 95.083 C 189.579 93.304,189.574 80.084,189.102 78.083 C 188.350 74.900,186.693 72.955,183.919 72.001 C 182.652 71.565,177.956 71.525,177.000 71.943 M202.483 72.153 C 201.635 72.583,201.060 72.992,200.379 73.652 C 200.088 73.934,199.840 73.661,199.836 73.054 C 199.830 72.248,199.521 72.167,196.477 72.167 C 194.843 72.167,193.508 72.240,193.322 72.339 C 192.869 72.582,192.810 100.286,193.262 100.738 C 193.650 101.127,199.183 101.127,199.571 100.738 C 199.803 100.506,199.834 99.370,199.836 90.780 C 199.839 78.968,199.803 79.158,202.164 78.361 C 203.227 78.001,203.336 78.012,205.728 78.711 C 206.297 78.877,206.400 78.863,206.604 78.584 C 207.068 77.948,207.232 78.417,207.944 82.417 C 208.394 84.951,208.672 86.472,209.084 88.667 C 209.230 89.446,209.411 90.421,209.486 90.833 C 209.560 91.246,209.739 92.183,209.882 92.917 C 210.026 93.650,210.304 95.150,210.501 96.250 C 211.426 101.417,211.052 101.000,214.764 101.000 C 218.361 101.000,218.108 101.169,218.495 98.500 C 219.156 93.942,219.335 92.798,219.409 92.678 C 219.456 92.604,219.566 91.952,219.655 91.230 C 220.089 87.695,220.404 86.242,220.566 87.022 C 220.912 88.693,221.028 89.349,221.325 91.333 C 222.365 98.272,222.758 100.459,223.022 100.777 C 223.281 101.089,228.635 101.098,229.061 100.787 C 229.247 100.651,229.463 100.036,229.660 99.079 C 230.193 96.493,230.968 92.560,231.761 88.417 C 233.058 81.633,233.507 79.341,234.030 76.833 C 235.050 71.944,235.170 72.166,231.510 72.169 C 228.203 72.172,228.368 72.024,228.004 75.333 C 227.908 76.204,227.759 77.292,227.674 77.750 C 227.526 78.544,227.268 80.265,226.489 85.666 C 226.106 88.316,226.065 88.464,225.930 87.642 C 225.476 84.870,225.316 83.815,225.085 82.083 C 224.192 75.383,223.707 72.610,223.387 72.375 C 222.929 72.039,217.772 72.085,217.429 72.428 C 217.116 72.741,217.100 72.818,216.752 75.583 C 216.603 76.775,216.293 79.025,216.065 80.583 C 215.836 82.142,215.543 84.256,215.413 85.282 C 215.008 88.491,214.815 88.715,214.508 86.333 C 214.407 85.554,214.213 84.204,214.077 83.333 C 213.740 81.186,213.008 76.272,212.735 74.333 C 212.612 73.462,212.509 72.737,212.506 72.720 C 212.416 72.276,211.834 72.166,209.530 72.161 C 207.723 72.156,206.974 72.093,206.667 71.917 C 205.884 71.469,203.575 71.600,202.483 72.153 M241.833 71.943 C 240.240 72.638,239.509 73.071,238.708 73.793 C 238.226 74.228,237.832 74.677,237.833 74.792 C 237.833 74.906,237.770 75.000,237.693 75.000 C 237.174 75.000,235.973 78.504,235.939 80.117 C 235.906 81.660,236.268 81.829,239.583 81.820 C 242.243 81.813,242.707 81.651,242.882 80.667 C 243.281 78.422,243.367 78.159,243.858 77.668 C 245.128 76.397,246.581 77.236,246.999 79.481 C 247.482 82.074,247.204 83.086,245.922 83.403 C 244.776 83.685,241.910 85.113,240.000 86.353 C 233.499 90.572,235.111 101.500,242.234 101.500 C 244.367 101.500,247.167 100.069,247.167 98.979 C 247.167 98.524,247.641 99.139,247.715 99.690 C 247.886 100.962,247.992 101.000,251.347 101.000 C 254.697 101.000,254.969 100.914,254.749 99.931 C 254.404 98.389,254.302 96.232,254.177 87.750 C 254.048 79.019,254.018 78.357,253.704 77.487 C 252.680 74.644,251.043 72.990,248.205 71.932 C 247.216 71.563,242.685 71.571,241.833 71.943 M267.282 72.155 C 266.749 72.414,266.017 72.865,265.655 73.156 C 264.949 73.723,264.667 73.707,264.667 73.099 C 264.667 72.266,264.297 72.167,261.184 72.167 C 259.523 72.167,258.175 72.239,257.989 72.339 C 257.674 72.508,257.667 72.842,257.667 86.583 C 257.667 100.325,257.674 100.659,257.989 100.827 C 258.573 101.140,264.083 101.051,264.355 100.725 C 264.541 100.500,264.599 98.572,264.667 90.350 C 264.765 78.406,264.611 79.186,267.042 78.310 C 267.862 78.015,268.265 78.060,270.262 78.676 C 271.592 79.086,271.667 78.904,271.667 75.250 C 271.667 71.520,271.745 71.663,269.696 71.675 C 268.458 71.682,268.111 71.751,267.282 72.155 M319.167 72.140 C 316.673 73.210,315.966 73.950,314.683 76.833 C 313.735 78.966,313.480 90.783,314.295 94.833 C 314.959 98.131,316.627 100.127,319.578 101.154 C 320.860 101.600,325.428 101.666,326.227 101.249 C 326.490 101.112,326.809 101.000,326.937 101.000 C 327.915 101.000,330.219 98.941,330.854 97.500 C 331.036 97.087,331.251 96.600,331.333 96.417 C 331.414 96.233,331.531 95.821,331.593 95.500 C 331.655 95.179,331.790 94.811,331.894 94.683 C 332.029 94.516,332.083 92.200,332.083 86.583 C 332.083 80.966,332.029 78.651,331.894 78.484 C 331.790 78.355,331.655 77.987,331.593 77.667 C 331.531 77.346,331.418 76.933,331.340 76.750 C 331.263 76.567,331.103 76.159,330.984 75.844 C 330.696 75.084,329.307 73.431,328.515 72.907 C 326.447 71.539,321.514 71.134,319.167 72.140 M339.650 72.150 C 336.820 73.331,335.409 75.292,334.479 79.333 C 334.182 80.624,334.182 92.543,334.479 93.833 C 335.458 98.089,336.745 99.750,340.214 101.231 C 341.220 101.660,345.275 101.611,346.589 101.154 C 348.833 100.373,350.885 98.489,351.275 96.853 C 351.333 96.613,351.444 96.334,351.524 96.232 C 351.805 95.873,352.303 93.156,352.321 91.887 C 352.341 90.515,352.302 90.500,348.863 90.503 C 345.307 90.506,345.476 90.421,345.321 92.277 C 344.975 96.427,342.144 97.547,341.316 93.861 C 340.718 91.198,341.088 79.295,341.804 78.184 C 343.295 75.868,344.906 77.303,345.322 81.317 C 345.498 83.019,345.458 83.000,348.833 83.000 C 352.405 83.000,352.258 83.097,352.225 80.746 C 352.211 79.706,352.125 78.891,352.017 78.784 C 351.916 78.683,351.833 78.371,351.832 78.092 C 351.832 77.812,351.719 77.369,351.582 77.106 C 351.445 76.843,351.333 76.558,351.333 76.472 C 351.333 75.645,349.615 73.441,348.439 72.758 C 346.282 71.507,341.913 71.205,339.650 72.150 M380.750 72.067 C 377.110 73.409,375.409 75.874,375.527 79.633 C 375.623 82.687,376.548 84.065,380.417 86.922 C 381.517 87.735,382.492 88.460,382.583 88.535 C 382.675 88.610,383.125 88.949,383.583 89.289 C 384.042 89.628,384.492 89.962,384.583 90.030 C 386.159 91.209,386.667 92.066,386.667 93.547 C 386.667 96.992,382.359 96.567,381.343 93.022 C 381.031 91.931,380.207 91.532,379.285 92.026 C 379.087 92.132,378.698 92.275,378.421 92.345 C 375.857 92.986,375.309 93.505,375.761 94.869 C 376.632 97.504,378.553 99.875,380.500 100.719 C 380.821 100.858,381.357 101.091,381.692 101.236 C 382.561 101.613,386.748 101.610,387.917 101.232 C 390.282 100.465,392.039 99.121,392.784 97.506 C 393.018 96.998,393.293 96.403,393.396 96.183 C 393.639 95.663,393.642 91.680,393.400 91.150 C 391.921 87.920,391.196 87.137,386.362 83.548 C 385.842 83.162,385.342 82.784,385.250 82.708 C 385.158 82.632,384.643 82.238,384.105 81.833 C 382.460 80.594,381.974 79.404,382.646 78.259 C 383.579 76.667,385.781 76.898,386.955 78.709 C 387.207 79.098,387.454 79.454,387.503 79.500 C 387.552 79.546,387.735 79.907,387.909 80.302 C 388.375 81.356,389.182 81.628,390.227 81.082 C 390.490 80.945,390.865 80.831,391.061 80.828 C 391.256 80.825,391.562 80.713,391.740 80.578 C 391.918 80.443,392.229 80.333,392.430 80.333 C 393.307 80.333,393.955 78.889,393.350 78.283 C 393.249 78.182,393.167 77.990,393.167 77.855 C 393.167 76.273,390.277 72.992,388.105 72.109 C 386.776 71.568,382.174 71.542,380.750 72.067 M183.939 72.574 C 188.083 74.078,188.909 76.375,188.914 86.417 C 188.917 94.733,188.566 96.705,186.712 98.763 C 183.829 101.963,176.669 101.874,173.974 98.605 C 172.231 96.490,172.005 95.113,172.002 86.568 C 171.999 77.866,172.208 76.650,174.087 74.402 C 175.913 72.217,180.574 71.352,183.939 72.574 M205.964 72.278 C 206.458 72.500,207.038 72.549,208.833 72.522 C 211.797 72.478,211.851 72.506,212.105 74.254 C 212.212 74.985,212.535 77.196,212.824 79.167 C 213.112 81.137,213.573 84.287,213.847 86.167 C 214.786 92.610,215.018 92.771,215.736 87.482 C 217.502 74.472,217.713 73.069,217.939 72.833 C 218.223 72.536,221.575 72.380,222.505 72.621 C 223.150 72.788,223.097 72.624,223.579 76.000 C 223.730 77.054,223.922 78.367,224.007 78.917 C 224.092 79.467,224.347 81.267,224.575 82.917 C 225.313 88.262,225.658 90.407,225.862 90.900 L 226.061 91.384 226.272 90.775 C 226.388 90.441,226.862 87.523,227.325 84.292 C 229.226 71.039,228.733 72.619,230.999 72.528 C 234.017 72.407,234.279 72.548,233.925 74.100 C 233.781 74.732,233.323 77.012,232.907 79.167 C 232.491 81.321,231.859 84.583,231.502 86.417 C 231.145 88.250,230.507 91.550,230.083 93.750 C 228.599 101.454,229.168 100.495,226.083 100.495 C 223.244 100.495,223.370 100.573,223.078 98.652 C 222.946 97.789,222.648 95.883,222.415 94.417 C 222.183 92.950,221.879 91.000,221.741 90.083 C 220.966 84.936,220.615 83.377,220.333 83.833 C 220.116 84.186,219.237 89.403,217.809 98.833 C 217.704 99.521,217.546 100.177,217.456 100.292 C 217.274 100.523,212.408 100.595,212.057 100.372 C 211.951 100.304,211.552 98.562,211.171 96.500 C 210.790 94.437,210.301 91.813,210.085 90.667 C 209.868 89.521,209.531 87.721,209.336 86.667 C 209.142 85.612,208.806 83.813,208.590 82.667 C 208.375 81.521,208.151 80.283,208.094 79.917 C 208.036 79.550,207.918 78.912,207.831 78.500 C 207.743 78.087,207.553 77.150,207.408 76.417 C 207.263 75.683,207.065 74.828,206.967 74.515 L 206.790 73.947 206.568 74.349 C 206.429 74.598,206.343 75.325,206.339 76.271 C 206.332 78.223,206.261 78.293,204.678 77.908 C 202.627 77.409,200.876 77.924,199.918 79.306 L 199.417 80.028 199.371 90.043 C 199.339 97.016,199.270 100.126,199.142 100.279 C 198.951 100.510,194.321 100.613,193.764 100.399 C 193.526 100.308,193.500 98.933,193.500 86.561 L 193.500 72.825 193.928 72.663 C 194.562 72.421,198.330 72.461,198.833 72.715 C 199.180 72.889,199.259 73.064,199.302 73.750 C 199.387 75.088,199.559 75.126,200.727 74.065 C 201.904 72.995,203.066 72.353,204.155 72.168 C 205.285 71.977,205.294 71.977,205.964 72.278 M246.750 72.173 C 249.719 72.598,252.252 74.772,253.082 77.607 C 253.543 79.183,253.661 81.530,253.664 89.167 C 253.666 93.877,253.740 97.318,253.859 98.250 C 253.964 99.075,254.058 99.900,254.067 100.083 C 254.083 100.402,253.963 100.419,251.439 100.463 C 248.399 100.516,248.416 100.522,248.252 99.203 C 248.032 97.438,247.640 97.234,246.816 98.458 C 245.548 100.342,244.364 101.001,242.250 100.998 C 237.272 100.993,234.903 94.981,237.780 89.654 C 238.947 87.494,241.285 85.752,244.924 84.334 C 248.052 83.115,247.922 83.272,247.768 80.893 C 247.604 78.362,247.178 77.372,246.047 76.894 C 244.222 76.121,242.680 77.316,242.398 79.721 C 242.230 81.158,242.212 81.167,239.327 81.167 C 236.335 81.167,236.372 81.193,236.667 79.246 C 237.448 74.096,241.299 71.394,246.750 72.173 M270.875 72.279 C 271.076 72.398,271.027 77.964,270.824 78.089 C 270.727 78.149,270.121 78.069,269.476 77.911 C 267.598 77.450,266.043 77.806,264.969 78.943 C 264.072 79.892,264.089 79.686,264.000 90.417 L 263.917 100.417 261.272 100.463 C 259.464 100.494,258.555 100.448,258.397 100.317 C 258.204 100.157,258.167 97.911,258.167 86.572 L 258.167 73.019 258.537 72.759 C 258.969 72.457,262.836 72.383,263.572 72.663 C 263.951 72.807,264.000 72.918,264.000 73.642 C 264.000 74.987,264.273 75.023,265.697 73.864 C 267.688 72.244,269.745 71.615,270.875 72.279 M326.445 72.508 C 328.858 73.333,330.216 74.921,331.141 78.000 C 331.561 79.397,331.554 93.785,331.133 95.214 C 329.902 99.391,327.673 101.000,323.117 101.000 C 315.915 101.000,314.363 98.160,314.550 85.324 C 314.653 78.284,314.955 76.642,316.505 74.680 C 318.400 72.283,322.908 71.298,326.445 72.508 M346.572 72.509 C 349.665 73.464,351.661 76.774,351.665 80.952 C 351.667 82.486,351.642 82.500,348.833 82.500 C 346.232 82.500,346.002 82.415,345.994 81.452 C 345.950 76.027,341.572 74.817,340.646 79.974 C 340.270 82.067,340.330 92.409,340.726 93.833 C 341.949 98.224,346.000 96.919,346.000 92.134 C 346.000 90.854,346.043 90.833,348.711 90.833 C 351.627 90.833,351.667 90.853,351.665 92.298 C 351.660 98.005,348.498 101.120,342.862 100.971 C 336.706 100.809,334.750 97.359,334.750 86.667 C 334.750 77.828,335.866 74.528,339.432 72.826 C 341.263 71.952,344.329 71.816,346.572 72.509 M387.659 72.541 C 389.788 73.334,391.089 74.591,392.250 76.977 C 393.442 79.427,393.392 79.524,390.393 80.496 C 388.918 80.974,388.821 80.937,388.178 79.636 C 386.457 76.158,382.889 75.575,381.989 78.625 C 381.498 80.290,381.927 80.836,386.333 84.159 C 392.926 89.131,394.658 92.923,392.324 97.276 C 389.514 102.518,380.615 102.415,377.433 97.104 C 375.721 94.247,375.840 93.699,378.346 92.897 C 380.330 92.262,380.398 92.276,380.948 93.437 C 382.730 97.202,387.000 97.519,387.299 93.909 C 387.473 91.819,386.973 91.190,382.417 87.764 C 376.195 83.087,375.226 81.343,376.440 76.996 C 377.524 73.112,383.171 70.869,387.659 72.541 M354.776 72.471 C 354.431 72.853,354.348 96.186,354.687 97.623 C 355.670 101.791,360.385 102.918,364.561 99.982 C 365.588 99.260,365.825 99.284,365.831 100.113 C 365.836 100.925,366.134 101.000,369.333 101.000 C 371.817 101.000,372.353 100.957,372.571 100.738 C 373.023 100.286,372.964 72.582,372.511 72.339 C 371.948 72.038,366.409 72.115,366.095 72.429 C 365.863 72.661,365.833 73.903,365.830 83.554 C 365.825 95.695,365.936 94.607,364.607 95.591 C 364.099 95.967,363.783 96.068,363.092 96.075 C 361.539 96.090,361.667 97.145,361.667 84.267 C 361.667 74.255,361.636 72.864,361.407 72.537 C 361.040 72.013,355.243 71.955,354.776 72.471 M360.569 72.661 L 360.993 72.823 361.038 84.258 L 361.083 95.694 361.628 96.180 C 362.551 97.006,364.278 96.690,365.690 95.438 C 366.519 94.702,366.500 94.983,366.500 83.590 L 366.500 72.825 366.928 72.663 C 367.664 72.383,371.531 72.457,371.963 72.759 L 372.333 73.019 372.333 86.572 C 372.333 97.911,372.296 100.157,372.103 100.317 C 371.945 100.448,371.036 100.494,369.228 100.463 L 366.583 100.417 366.533 99.555 C 366.459 98.265,366.190 98.150,365.125 98.951 C 360.696 102.280,356.097 101.638,355.348 97.585 C 355.228 96.939,355.167 92.563,355.167 84.733 L 355.167 72.861 355.625 72.694 C 356.219 72.477,360.018 72.452,360.569 72.661 M179.225 77.000 C 178.686 77.274,178.447 77.543,178.142 78.218 L 177.750 79.083 177.750 86.583 L 177.750 94.083 178.167 94.908 C 179.287 97.126,181.963 96.963,182.778 94.627 C 183.056 93.828,183.083 93.100,183.083 86.417 L 183.083 79.083 182.667 78.259 C 181.922 76.784,180.600 76.301,179.225 77.000 M280.624 77.037 C 279.216 77.853,278.935 79.349,278.940 86.000 C 278.947 95.173,279.839 97.272,283.333 96.343 C 283.654 96.258,284.232 96.106,284.617 96.006 C 285.918 95.669,285.833 96.323,285.833 86.667 L 285.833 78.024 285.395 77.679 C 284.242 76.773,281.676 76.427,280.624 77.037 M321.914 76.998 C 320.434 77.731,320.250 78.782,320.250 86.500 C 320.250 93.721,320.359 94.662,321.310 95.662 C 322.733 97.158,324.731 96.596,325.457 94.497 C 325.981 92.980,325.967 79.563,325.440 78.417 C 324.701 76.810,323.374 76.276,321.914 76.998 M181.403 77.491 C 182.520 78.182,182.583 78.676,182.583 86.667 C 182.583 93.674,182.579 93.759,182.205 94.583 C 181.426 96.300,179.509 96.493,178.767 94.929 C 178.068 93.457,177.915 80.768,178.571 78.701 C 179.017 77.294,180.239 76.772,181.403 77.491 M283.322 77.352 C 283.649 77.455,284.235 77.679,284.625 77.850 L 285.333 78.162 285.328 86.540 C 285.322 95.957,285.387 95.478,284.089 95.625 C 283.669 95.672,283.285 95.776,283.236 95.855 C 282.755 96.634,280.886 95.781,280.264 94.500 C 279.476 92.879,279.265 83.136,279.928 78.971 C 280.160 77.509,281.609 76.818,283.322 77.352 M324.087 77.575 C 325.114 78.358,325.167 78.800,325.167 86.615 C 325.166 94.338,325.113 94.774,324.062 95.616 C 323.275 96.245,322.121 96.047,321.556 95.185 C 320.527 93.615,320.526 79.459,321.555 77.990 C 322.177 77.101,323.238 76.928,324.087 77.575 M119.762 79.612 C 121.220 80.105,121.912 80.954,122.664 83.167 C 123.104 84.464,123.693 84.332,117.394 84.343 C 114.290 84.348,110.888 84.426,109.833 84.516 C 108.779 84.607,107.017 84.743,105.917 84.820 C 104.817 84.896,103.307 85.053,102.562 85.169 C 100.388 85.507,99.963 85.208,100.565 83.767 C 100.806 83.192,102.464 81.333,102.736 81.333 C 102.821 81.333,103.009 81.230,103.154 81.105 C 104.133 80.254,106.510 79.876,111.667 79.750 C 114.096 79.691,116.383 79.582,116.750 79.507 C 117.857 79.282,118.896 79.318,119.762 79.612 M63.351 81.208 C 63.273 81.415,63.159 82.258,63.098 83.083 C 63.036 83.908,62.949 84.771,62.905 85.000 C 62.827 85.411,62.853 85.422,64.955 85.815 C 67.291 86.252,71.848 87.598,73.202 88.252 C 74.235 88.750,74.222 88.748,74.006 88.344 C 73.911 88.167,73.833 87.160,73.833 86.106 L 73.833 84.189 73.349 83.845 C 73.083 83.655,72.689 83.500,72.474 83.499 C 70.407 83.494,67.462 82.694,65.377 81.572 C 63.813 80.731,63.548 80.683,63.351 81.208 M68.000 83.078 C 68.504 83.228,69.850 83.490,70.990 83.659 C 73.506 84.033,73.500 84.028,73.500 86.022 C 73.500 87.576,73.393 87.799,72.799 87.482 C 72.593 87.371,72.198 87.221,71.921 87.147 C 71.643 87.074,71.042 86.900,70.583 86.760 C 67.733 85.893,66.489 85.572,65.000 85.320 C 63.192 85.013,63.125 84.886,63.511 82.504 C 63.741 81.086,63.780 81.077,65.558 82.007 C 66.397 82.446,67.496 82.928,68.000 83.078 M246.250 87.828 C 244.605 88.791,243.452 89.867,242.877 90.978 C 241.102 94.408,243.757 97.911,246.521 95.785 C 247.751 94.839,247.833 94.532,247.833 90.911 C 247.833 86.993,247.797 86.923,246.250 87.828 M247.127 91.180 C 247.175 94.410,247.054 94.867,245.998 95.468 C 245.725 95.623,245.502 95.806,245.501 95.875 C 245.495 96.585,243.594 95.628,243.257 94.745 C 242.514 92.800,243.195 90.753,245.061 89.320 C 245.532 88.959,245.995 88.601,246.091 88.524 C 246.343 88.321,246.724 88.188,246.917 88.236 C 247.018 88.261,247.100 89.421,247.127 91.180 M82.128 90.954 C 82.428 90.991,82.878 90.990,83.128 90.952 C 83.378 90.914,83.133 90.884,82.583 90.885 C 82.033 90.886,81.828 90.917,82.128 90.954 M49.500 94.114 C 43.282 94.397,39.020 96.154,38.314 98.725 C 38.085 99.558,38.102 103.572,38.342 105.365 C 39.656 115.187,44.159 118.920,54.083 118.416 C 64.267 117.899,70.238 113.818,71.759 106.335 C 73.605 97.249,66.483 93.339,49.500 94.114 M106.167 94.171 C 96.086 95.037,91.828 98.220,92.369 104.486 C 93.158 113.634,99.657 118.336,111.583 118.389 C 119.533 118.423,123.997 115.332,125.344 108.860 C 126.244 104.532,126.465 100.494,125.906 98.571 C 124.920 95.180,116.434 93.289,106.167 94.171 M59.255 94.802 C 60.358 94.900,61.469 95.060,61.724 95.157 C 61.980 95.254,62.410 95.333,62.680 95.333 C 63.342 95.333,65.998 96.220,67.319 96.881 C 71.589 99.020,72.654 103.447,70.284 109.207 C 69.728 110.559,67.934 113.274,67.500 113.420 C 67.362 113.466,66.950 113.770,66.583 114.095 C 65.816 114.775,62.352 116.504,61.000 116.882 C 60.496 117.023,59.783 117.227,59.417 117.336 C 59.050 117.444,58.075 117.593,57.250 117.668 C 56.425 117.742,54.859 117.889,53.771 117.993 C 52.093 118.155,51.619 118.145,50.655 117.925 C 50.029 117.783,49.157 117.664,48.717 117.661 C 48.277 117.658,47.729 117.548,47.500 117.417 C 47.271 117.286,46.901 117.176,46.678 117.173 C 46.276 117.167,45.504 116.824,44.287 116.110 C 43.621 115.720,41.500 113.730,41.500 113.495 C 41.500 113.419,41.406 113.256,41.292 113.133 C 40.944 112.758,40.000 110.855,40.000 110.528 C 40.000 110.360,39.944 110.166,39.875 110.097 C 39.696 109.919,39.331 108.421,39.180 107.245 C 39.109 106.692,38.964 106.078,38.859 105.881 C 38.426 105.073,38.609 98.887,39.083 98.265 C 39.313 97.964,39.500 97.638,39.500 97.540 C 39.500 97.110,42.673 95.580,43.980 95.380 C 44.312 95.329,44.658 95.230,44.750 95.160 C 44.842 95.090,45.890 94.946,47.081 94.839 C 48.271 94.732,49.282 94.607,49.327 94.562 C 49.464 94.425,57.095 94.610,59.255 94.802 M117.415 94.815 C 118.422 94.921,119.472 95.079,119.748 95.166 C 122.797 96.128,123.006 96.220,124.207 97.128 C 124.826 97.595,125.199 98.011,125.262 98.301 C 125.316 98.548,125.432 98.902,125.521 99.088 C 125.859 99.792,125.489 106.507,125.029 108.032 C 124.003 111.425,123.736 112.096,122.953 113.236 C 122.169 114.376,121.399 115.154,120.417 115.796 C 119.473 116.414,117.982 117.167,117.703 117.167 C 117.573 117.167,117.231 117.273,116.942 117.402 C 116.653 117.532,116.042 117.677,115.583 117.724 C 115.125 117.771,114.250 117.894,113.640 117.999 C 112.537 118.187,112.346 118.178,106.917 117.672 C 106.183 117.604,105.372 117.462,105.114 117.357 C 104.856 117.252,104.471 117.167,104.258 117.167 C 104.045 117.167,103.657 117.055,103.394 116.918 C 103.131 116.781,102.765 116.668,102.580 116.668 C 102.217 116.667,98.754 114.962,98.320 114.571 C 98.175 114.440,97.975 114.333,97.876 114.333 C 97.776 114.333,97.669 114.276,97.639 114.205 C 97.608 114.135,97.373 113.915,97.116 113.716 C 96.859 113.517,96.336 112.956,95.954 112.469 C 95.571 111.982,95.219 111.546,95.171 111.500 C 94.827 111.172,93.607 108.629,93.372 107.750 C 92.826 105.705,92.456 101.500,92.823 101.500 C 92.920 101.500,93.000 101.421,93.000 101.324 C 93.000 99.036,97.322 95.993,101.500 95.340 C 102.096 95.247,102.921 95.098,103.333 95.009 C 103.746 94.920,104.571 94.840,105.167 94.831 C 105.763 94.822,106.550 94.749,106.917 94.670 C 107.818 94.475,115.139 94.576,117.415 94.815 " stroke="none" fill="#708584" fill-rule="evenodd"></path><path id="path4" d="M32.192 40.170 C 31.977 40.350,31.489 40.580,31.109 40.681 C 25.742 42.115,22.040 46.247,20.746 52.246 C 20.096 55.263,19.861 55.658,17.738 57.305 C 14.306 59.968,12.761 63.668,12.507 69.833 C 12.344 73.793,12.184 74.485,11.006 76.333 C 7.520 81.806,6.029 89.097,7.428 93.833 C 7.682 94.693,8.385 96.364,9.515 98.796 C 11.062 102.124,14.196 103.103,19.750 101.993 C 22.718 101.399,25.210 100.846,25.295 100.760 C 25.343 100.713,25.076 100.342,24.703 99.937 C 23.703 98.852,23.319 97.983,23.211 96.562 C 23.086 94.905,23.054 94.888,20.905 95.320 C 18.070 95.891,15.699 95.966,15.119 95.504 C 12.605 93.499,12.826 86.808,15.587 81.325 C 16.474 79.565,16.946 79.624,17.330 81.543 C 18.103 85.412,19.322 87.000,21.521 87.000 C 24.330 87.000,24.730 82.189,22.356 76.964 C 22.177 76.571,21.845 75.837,21.618 75.333 C 21.391 74.829,20.758 73.479,20.211 72.333 C 18.244 68.211,18.338 66.917,20.850 63.567 C 22.841 60.910,23.619 60.851,27.500 63.061 C 29.038 63.937,29.100 63.995,29.667 65.113 C 29.988 65.746,30.804 67.010,31.482 67.923 C 33.384 70.486,33.896 71.691,33.974 73.789 C 34.062 76.144,34.039 76.198,32.653 77.008 C 28.427 79.476,27.336 82.547,30.147 84.061 L 31.034 84.540 35.976 84.514 C 41.987 84.483,44.801 84.322,45.002 83.997 C 45.371 83.400,44.587 81.619,43.169 79.833 C 42.622 79.146,41.810 78.050,41.362 77.397 L 40.548 76.211 40.456 73.897 C 40.279 69.444,39.093 65.871,36.676 62.514 C 35.017 60.210,35.242 59.746,38.416 58.921 C 42.033 57.981,43.353 58.525,44.917 61.600 C 47.366 66.414,50.832 66.034,51.147 60.917 L 51.250 59.250 52.426 59.271 C 53.911 59.297,54.454 59.571,56.031 61.090 C 62.027 66.861,65.926 68.679,66.564 66.000 C 66.619 65.771,66.621 65.676,66.568 65.790 C 66.499 65.941,66.386 65.950,66.153 65.826 C 65.922 65.702,65.833 65.709,65.833 65.851 C 65.833 65.958,65.646 65.770,65.417 65.433 C 65.188 65.095,65.000 64.747,65.000 64.659 C 65.000 64.572,64.700 64.500,64.333 64.500 C 63.704 64.500,63.667 64.472,63.667 64.000 C 63.667 63.556,63.611 63.500,63.167 63.500 C 62.892 63.500,62.667 63.425,62.667 63.333 C 62.667 63.242,62.554 63.167,62.417 63.167 C 62.279 63.167,62.167 63.054,62.167 62.917 C 62.167 62.779,62.092 62.667,62.000 62.667 C 61.908 62.667,61.833 62.554,61.833 62.417 C 61.833 62.231,61.639 62.167,61.083 62.167 C 60.528 62.167,60.333 62.102,60.333 61.917 C 60.333 61.779,60.221 61.667,60.083 61.667 C 59.946 61.667,59.833 61.586,59.833 61.488 C 59.833 61.234,59.463 60.897,59.034 60.761 C 58.833 60.697,58.622 60.462,58.566 60.239 C 58.510 60.016,58.359 59.833,58.232 59.833 C 58.104 59.833,58.000 59.721,58.000 59.583 C 58.000 59.400,57.809 59.333,57.283 59.333 C 56.516 59.333,56.167 59.115,56.167 58.633 C 56.167 58.468,56.054 58.333,55.917 58.333 C 55.779 58.333,55.667 58.258,55.667 58.167 C 55.667 58.075,55.442 58.000,55.167 58.000 C 54.722 58.000,54.667 57.944,54.667 57.500 C 54.667 57.078,54.602 57.000,54.250 57.000 C 53.991 57.000,53.833 56.906,53.833 56.750 C 53.833 56.565,53.639 56.500,53.083 56.500 C 52.394 56.500,52.333 56.466,52.333 56.083 C 52.333 55.824,52.239 55.667,52.083 55.667 C 51.946 55.667,51.833 55.554,51.833 55.417 C 51.833 55.279,51.758 55.167,51.667 55.167 C 51.575 55.167,51.500 55.054,51.500 54.917 C 51.500 54.750,51.333 54.667,51.000 54.667 C 50.667 54.667,50.500 54.583,50.500 54.417 C 50.500 54.236,50.315 54.167,49.833 54.167 C 49.377 54.167,49.167 54.094,49.167 53.936 C 49.167 53.691,48.676 53.506,48.014 53.502 C 47.579 53.500,47.626 53.334,48.081 53.267 C 48.235 53.245,48.410 53.149,48.472 53.055 C 48.649 52.782,49.324 52.475,49.503 52.585 C 49.593 52.641,49.667 52.607,49.667 52.510 C 49.667 52.413,49.835 52.327,50.042 52.320 C 50.248 52.313,50.333 52.273,50.232 52.231 C 50.130 52.189,49.244 52.348,48.263 52.584 L 46.480 53.014 44.691 52.507 C 42.579 51.909,41.565 51.875,39.250 52.325 C 33.623 53.419,31.893 54.080,30.199 55.783 C 29.021 56.967,28.741 57.026,27.834 56.282 C 25.463 54.337,27.160 49.756,31.023 47.673 C 32.091 47.098,32.658 47.054,34.249 47.422 C 35.859 47.796,37.082 47.501,37.822 46.560 C 38.205 46.073,38.761 44.372,38.592 44.203 C 38.534 44.145,38.444 44.263,38.391 44.466 C 38.338 44.668,38.224 44.833,38.137 44.833 C 38.051 44.833,38.027 44.909,38.084 45.001 C 38.141 45.093,38.052 45.219,37.886 45.281 C 37.719 45.342,37.528 45.473,37.461 45.571 C 37.394 45.670,37.337 45.431,37.336 45.042 L 37.333 44.333 36.667 44.333 C 36.185 44.333,36.000 44.264,36.000 44.083 C 36.000 43.946,35.887 43.833,35.750 43.833 C 35.612 43.833,35.500 43.721,35.500 43.583 C 35.500 43.446,35.387 43.333,35.250 43.333 C 35.112 43.333,35.000 43.258,35.000 43.167 C 35.000 43.075,34.775 43.000,34.500 43.000 C 34.167 43.000,34.000 42.917,34.000 42.750 C 34.000 42.612,33.925 42.500,33.833 42.500 C 33.742 42.500,33.667 42.387,33.667 42.250 C 33.667 42.077,33.493 42.000,33.104 42.000 C 32.794 42.000,32.447 41.887,32.333 41.750 C 32.219 41.612,31.910 41.500,31.646 41.500 C 31.074 41.500,31.023 41.255,31.538 40.980 C 31.921 40.775,32.084 40.626,32.479 40.124 C 32.774 39.748,32.681 39.763,32.192 40.170 M66.629 64.208 C 66.590 64.690,66.618 65.196,66.691 65.333 C 66.768 65.479,66.825 65.115,66.828 64.458 C 66.834 63.118,66.727 62.983,66.629 64.208 M75.290 71.326 C 74.968 74.868,72.046 75.411,65.395 73.164 C 54.610 69.522,46.520 70.550,45.582 75.682 C 45.019 78.763,47.693 79.687,53.704 78.489 C 57.438 77.745,57.446 77.748,56.979 79.863 C 56.810 80.626,56.623 81.973,56.563 82.856 C 56.428 84.818,56.332 84.737,59.091 84.992 C 60.187 85.094,61.469 85.221,61.940 85.276 C 62.960 85.394,62.924 85.459,63.092 83.167 C 63.287 80.502,63.330 80.471,65.377 81.572 C 67.462 82.694,70.407 83.494,72.474 83.499 C 72.689 83.500,73.083 83.655,73.349 83.845 L 73.833 84.189 73.833 86.186 C 73.833 88.526,73.846 88.547,75.750 89.529 C 77.627 90.497,78.465 90.685,81.333 90.780 C 84.685 90.892,84.708 90.878,83.895 89.204 C 82.800 86.953,82.618 85.499,82.717 79.750 C 82.764 77.000,82.772 74.938,82.735 75.167 C 82.342 77.619,82.285 77.859,82.150 77.646 C 82.070 77.520,82.004 77.248,82.003 77.042 C 82.000 76.737,81.907 76.667,81.500 76.667 C 81.225 76.667,81.000 76.592,81.000 76.500 C 81.000 76.408,80.887 76.333,80.750 76.333 C 80.612 76.333,80.500 76.221,80.500 76.083 C 80.500 75.946,80.387 75.833,80.250 75.833 C 80.112 75.833,80.000 75.721,80.000 75.583 C 80.000 75.403,79.815 75.333,79.333 75.333 C 78.704 75.333,78.667 75.306,78.667 74.833 C 78.667 74.500,78.583 74.333,78.417 74.333 C 78.279 74.333,78.167 74.221,78.167 74.083 C 78.167 73.928,78.009 73.833,77.750 73.833 C 77.521 73.833,77.333 73.758,77.333 73.667 C 77.333 73.575,77.221 73.500,77.083 73.500 C 76.946 73.500,76.833 73.387,76.833 73.250 C 76.833 73.083,76.667 73.000,76.333 73.000 C 76.058 73.000,75.833 72.917,75.833 72.816 C 75.833 72.713,75.712 72.678,75.560 72.736 C 75.344 72.819,75.326 72.793,75.475 72.613 C 75.579 72.488,75.613 72.336,75.552 72.274 C 75.490 72.212,75.459 71.750,75.482 71.248 C 75.538 70.024,75.403 70.080,75.290 71.326 M92.606 84.167 C 92.966 86.819,93.292 87.090,95.333 86.431 C 96.557 86.036,96.531 85.865,95.292 86.153 C 94.738 86.282,94.667 86.262,94.667 85.982 C 94.667 85.732,94.545 85.667,94.073 85.667 C 93.718 85.667,93.522 85.599,93.584 85.499 C 93.641 85.407,93.580 85.290,93.448 85.239 C 93.242 85.160,92.950 84.621,92.597 83.667 C 92.546 83.529,92.550 83.754,92.606 84.167 M97.083 85.833 C 96.659 86.016,97.097 86.016,97.667 85.833 C 98.002 85.726,98.018 85.699,97.750 85.695 C 97.567 85.692,97.267 85.755,97.083 85.833 " stroke="none" fill="#27a0d6" fill-rule="evenodd"></path></g></svg>